<?xml version="1.0" encoding="UTF-8" standalone="no"?>
<svg
   width="77pt"
   height="77pt"
   viewBox="0 0 76.999998 77.000003"
   version="1.1"
   id="svg38"
   sodipodi:docname="logo5short.svg"
   inkscape:version="1.2 (dc2aedaf03, 2022-05-15)"
   xmlns:inkscape="http://www.inkscape.org/namespaces/inkscape"
   xmlns:sodipodi="http://sodipodi.sourceforge.net/DTD/sodipodi-0.dtd"
   xmlns="http://www.w3.org/2000/svg"
   xmlns:svg="http://www.w3.org/2000/svg">
  <defs
     id="defs42" />
  <sodipodi:namedview
     id="namedview40"
     pagecolor="#ffffff"
     bordercolor="#666666"
     borderopacity="1.0"
     inkscape:showpageshadow="2"
     inkscape:pageopacity="0.0"
     inkscape:pagecheckerboard="0"
     inkscape:deskcolor="#d1d1d1"
     inkscape:document-units="pt"
     showgrid="false"
     inkscape:zoom="3.1750015"
     inkscape:cx="75.275555"
     inkscape:cy="65.82674"
     inkscape:window-width="1920"
     inkscape:window-height="1017"
     inkscape:window-x="-8"
     inkscape:window-y="32"
     inkscape:window-maximized="1"
     inkscape:current-layer="svg38" />
  <path
     fill-rule="nonzero"
     fill="#1dcdfe"
     fill-opacity="1"
     d="m 68.103576,2.1748083 c -5.19532,3.601821 -9.65946,8.5221697 -18.78563,22.2714327 -6.47045,9.749164 -7.88185,11.827138 -10.49374,15.46112 C 20.810056,64.971686 1.4840459,75.923106 1.1605159,61.251128 0.97564594,52.90212 9.6977159,38.381038 11.784616,43.55866 c 0.72052,1.78854 1.24668,0.940036 0.70393,-1.137939 C 10.430086,34.534313 -0.84342407,53.656617 0.27883594,63.128726 1.9438459,77.182266 21.118186,66.094786 39.225946,40.60744 c 2.11179,-2.973482 4.56724,-6.632201 11.9881,-17.860685 8.71378,-13.1901907 15.0029,-19.8223927 20.25155,-21.3610817 2.40569,-0.70502802 3.61326,-0.37849 4.5945,-0.74213402 0.89827,-0.427964 0.98004,-0.638236 0.23464,-0.20285 -1.15544,0.482386 -4.12759,-0.195429 -8.19116,1.73411902 M 32.712836,53.775361 c 4.84573,-6.283394 9.07285,-12.616268 14.21722,-21.299233 6.15995,-9.536417 8.7031,-13.709684 0.76199,-2.144767 -7.37228,12.532165 -10.3622,16.848911 -17.48799,25.247388 -8.82635,10.399767 -16.31832,17.027027 -21.8833801,19.354847 -2.25162,0.94005 -3.05746,1.89492 -1.57495,1.86523 4.0860901,-0.0816 17.3291901,-11.82219 25.9671101,-23.023465 m -4.17499,-5.185039 c 1.35573,-1.974074 1.35928,-2.167028 0.008,-0.38343 -5.06614,6.679207 -15.17592,14.142591 -18.54269,13.68989 -3.9308501,-0.529384 -4.9488201,-5.452208 -1.9754901,-9.558681 0.98004,-1.355629 1.13529,-2.570256 0.21804,-1.711855 -4.1489,3.888781 -3.43194,11.258168 1.18626,12.205625 3.6772501,0.752035 14.1935001,-7.084897 19.1055801,-14.241549"
     id="path24"
     style="stroke-width:0.43832" />
  <path
     fill-rule="nonzero"
     fill="rgb(11.399841%, 11.399841%, 10.598755%)"
     fill-opacity="1"
     d="M -109.102,112.00085 H 185.70269 V -35.401494 H -109.102 Z m 0,0"
     id="path2"
     style="fill:none;fill-opacity:1" />
  <g
     id="g306"
     transform="translate(-19.046876,-29.060547)">
    <path
       fill-rule="nonzero"
       fill="rgb(100%, 100%, 100%)"
       fill-opacity="1"
       d="M 55.878906,80.960938 C 54.039063,80.667969 52.65625,79.871094 51.742188,78.546875 50.5625,76.839844 49.976563,74.015625 49.976563,70.078125 V 54.425781 C 49.65625,51.464844 47.28125,49.117188 44.304688,48.835938 V 69.96875 c 0,5.324219 1.039062,9.386719 3.125,12.1875 1.832031,2.445313 4.648437,3.820313 8.449218,4.125 z m 0,0"
       id="path4"
       style="fill:#000000;fill-opacity:1" />
    <path
       fill-rule="nonzero"
       fill="rgb(100%, 100%, 100%)"
       fill-opacity="1"
       d="m 65.136719,55.113281 h -0.05078 v 14.964844 c 0,4.011719 -0.585938,6.851563 -1.75,8.515625 -0.929688,1.34375 -2.371094,2.136719 -4.300782,2.394531 v 5.296875 c 3.679688,-0.289062 6.496094,-1.671875 8.441407,-4.160156 2.207031,-2.8125 3.3125,-6.863281 3.3125,-12.15625 V 48.839844 c -3.171875,0.328125 -5.652344,3.015625 -5.652344,6.273437"
       id="path6"
       style="fill:#000000;fill-opacity:1" />
  </g>
</svg>
