<?xml version="1.0" encoding="UTF-8" standalone="no"?>
<svg
   width="294.803pt"
   height="147.402pt"
   viewBox="0 0 294.803 147.402"
   version="1.1"
   id="svg38"
   sodipodi:docname="logo5.svg"
   inkscape:version="1.2 (dc2aedaf03, 2022-05-15)"
   xmlns:inkscape="http://www.inkscape.org/namespaces/inkscape"
   xmlns:sodipodi="http://sodipodi.sourceforge.net/DTD/sodipodi-0.dtd"
   xmlns="http://www.w3.org/2000/svg"
   xmlns:svg="http://www.w3.org/2000/svg">
  <defs
     id="defs42" />
  <sodipodi:namedview
     id="namedview40"
     pagecolor="#ffffff"
     bordercolor="#666666"
     borderopacity="1.0"
     inkscape:showpageshadow="2"
     inkscape:pageopacity="0.0"
     inkscape:pagecheckerboard="0"
     inkscape:deskcolor="#d1d1d1"
     inkscape:document-units="pt"
     showgrid="false"
     inkscape:zoom="2.2450651"
     inkscape:cx="210.68431"
     inkscape:cy="74.385371"
     inkscape:window-width="1920"
     inkscape:window-height="1017"
     inkscape:window-x="-8"
     inkscape:window-y="32"
     inkscape:window-maximized="1"
     inkscape:current-layer="svg38" />
  <path
     fill-rule="nonzero"
     fill="rgb(11.399841%, 11.399841%, 10.598755%)"
     fill-opacity="1"
     d="M 0 147.402344 L 294.804688 147.402344 L 294.804688 0 L 0 0 Z M 0 147.402344 "
     id="path2"
     style="fill:none;fill-opacity:1" />
  <path
     fill-rule="nonzero"
     fill="rgb(100%, 100%, 100%)"
     fill-opacity="1"
     d="M 55.878906 80.960938 C 54.039063 80.667969 52.65625 79.871094 51.742188 78.546875 C 50.5625 76.839844 49.976563 74.015625 49.976563 70.078125 L 49.976563 54.425781 C 49.65625 51.464844 47.28125 49.117188 44.304688 48.835938 L 44.304688 69.96875 C 44.304688 75.292969 45.34375 79.355469 47.429688 82.15625 C 49.261719 84.601563 52.078125 85.976563 55.878906 86.28125 Z M 55.878906 80.960938 "
     id="path4"
     style="fill:#000000;fill-opacity:1" />
  <path
     fill-rule="nonzero"
     fill="rgb(100%, 100%, 100%)"
     fill-opacity="1"
     d="M 65.136719 55.113281 L 65.085938 55.113281 L 65.085938 70.078125 C 65.085938 74.089844 64.5 76.929688 63.335938 78.59375 C 62.40625 79.9375 60.964844 80.730469 59.035156 80.988281 L 59.035156 86.285156 C 62.714844 85.996094 65.53125 84.613281 67.476563 82.125 C 69.683594 79.3125 70.789063 75.261719 70.789063 69.96875 L 70.789063 48.839844 C 67.617188 49.167969 65.136719 51.855469 65.136719 55.113281 "
     id="path6"
     style="fill:#000000;fill-opacity:1" />
  <path
     fill-rule="nonzero"
     fill="rgb(11.399841%, 80.39856%, 99.598694%)"
     fill-opacity="1"
     d="M 195.300781 87.167969 C 190.28125 86.726563 185.984375 84.753906 182.546875 81.320313 C 179.15625 77.925781 177.144531 73.597656 176.722656 68.765625 C 176.644531 67.839844 176.6875 65.503906 176.804688 64.640625 C 177.414063 60.085938 179.363281 56.109375 182.546875 52.925781 C 185.59375 49.882813 189.484375 47.90625 193.683594 47.273438 C 195.988281 46.925781 198.417969 46.976563 200.667969 47.421875 C 204.542969 48.191406 208.117188 50.105469 210.9375 52.925781 C 213.757813 55.746094 215.679688 59.332031 216.445313 63.199219 C 216.726563 64.632813 216.792969 65.363281 216.792969 67.121094 C 216.796875 68.882813 216.730469 69.585938 216.445313 71.046875 C 215.417969 76.257813 212.285156 80.914063 207.816406 83.871094 C 205.191406 85.609375 202.480469 86.617188 199.222656 87.0625 C 198.589844 87.148438 195.902344 87.222656 195.300781 87.167969 M 198.761719 85.960938 C 201.882813 85.636719 204.957031 84.503906 207.476563 82.742188 C 208.527344 82.007813 209.226563 81.417969 210.160156 80.484375 C 212.082031 78.558594 213.4375 76.484375 214.417969 73.960938 C 215.695313 70.675781 216.023438 66.972656 215.34375 63.488281 C 214.414063 58.71875 211.664063 54.472656 207.648438 51.621094 C 205.21875 49.894531 202.28125 48.742188 199.28125 48.339844 C 198.226563 48.199219 198.167969 48.195313 196.800781 48.191406 C 193.855469 48.1875 191.257813 48.753906 188.632813 49.984375 C 185.839844 51.289063 183.140625 53.554688 181.304688 56.128906 C 180.785156 56.859375 180.738281 56.929688 180.367188 57.574219 C 179.023438 59.894531 178.195313 62.410156 177.902344 65.066406 C 177.792969 66.058594 177.777344 67.972656 177.871094 68.96875 C 178.027344 70.625 178.464844 72.421875 179.097656 74.035156 C 181.4375 80.007813 186.671875 84.410156 192.964844 85.707031 C 193.3125 85.777344 193.636719 85.839844 193.683594 85.847656 C 193.730469 85.851563 193.925781 85.878906 194.117188 85.898438 C 194.308594 85.921875 194.503906 85.957031 194.550781 85.972656 C 194.597656 85.988281 195.066406 86.015625 195.589844 86.03125 C 196.113281 86.046875 196.546875 86.070313 196.554688 86.074219 C 196.59375 86.109375 198.054688 86.035156 198.761719 85.960938 M 195.09375 85.261719 C 195.273438 84.804688 195.328125 84.414063 195.324219 83.683594 C 195.320313 83 195.285156 82.734375 195.050781 81.539063 C 194.550781 78.984375 194.554688 78.859375 195.21875 76.902344 C 195.65625 75.613281 195.867188 74.867188 196.023438 74.0625 C 196.148438 73.40625 196.160156 73.4375 195.738281 73.375 L 195.371094 73.320313 L 195.125 73.957031 C 194.828125 74.726563 194.457031 75.476563 193.949219 76.324219 C 193.40625 77.226563 193.367188 77.375 193.371094 78.347656 C 193.378906 79.1875 193.457031 79.753906 193.949219 82.355469 C 194.164063 83.488281 194.167969 83.703125 193.96875 84.097656 C 193.835938 84.355469 193.617188 84.535156 193.375 84.582031 C 193.222656 84.609375 191.527344 84.460938 190.636719 84.34375 L 190.390625 84.308594 L 190.511719 84.125 C 190.765625 83.75 191.082031 83.007813 191.167969 82.585938 C 191.214844 82.347656 191.308594 81.429688 191.375 80.539063 C 191.5625 78.039063 191.621094 77.84375 192.679688 76.269531 C 193.691406 74.761719 194.554688 73.214844 194.464844 73.070313 C 194.449219 73.046875 194.289063 72.964844 194.109375 72.890625 C 193.804688 72.765625 193.78125 72.765625 193.730469 72.859375 C 193.515625 73.242188 192.65625 74.269531 191.886719 75.0625 C 190.519531 76.472656 190.5 76.53125 190.226563 79.617188 C 190.164063 80.3125 190.09375 81.15625 190.074219 81.492188 C 190.027344 82.160156 189.945313 82.453125 189.726563 82.742188 C 189.355469 83.226563 189.089844 83.21875 187.707031 82.683594 C 187.105469 82.449219 186.519531 82.226563 186.398438 82.1875 C 186.28125 82.148438 186.183594 82.113281 186.183594 82.105469 C 186.183594 82.097656 186.347656 81.921875 186.550781 81.714844 C 187.214844 81.035156 187.511719 80.453125 188.0625 78.773438 C 188.421875 77.671875 188.789063 76.757813 189.015625 76.398438 C 189.289063 75.972656 189.671875 75.574219 190.539063 74.824219 C 190.953125 74.46875 191.496094 73.972656 191.75 73.722656 C 192.25 73.230469 193.070313 72.316406 193.039063 72.289063 C 193.027344 72.277344 192.894531 72.164063 192.738281 72.039063 L 192.457031 71.804688 L 191.960938 72.210938 C 191.347656 72.703125 190.546875 73.242188 189.816406 73.644531 C 188.800781 74.203125 188.425781 74.578125 188.035156 75.398438 C 187.832031 75.828125 187.027344 77.957031 186.664063 79.023438 C 186.359375 79.933594 186.304688 80.035156 186.015625 80.296875 C 185.714844 80.566406 185.402344 80.65625 185.105469 80.550781 C 184.882813 80.472656 182.667969 78.902344 182.664063 78.824219 C 182.664063 78.800781 182.695313 78.777344 182.738281 78.777344 C 182.898438 78.777344 183.875 78.074219 184.160156 77.757813 C 184.324219 77.574219 184.722656 77.035156 185.042969 76.558594 C 186.835938 73.894531 186.820313 73.910156 189.078125 72.792969 C 189.785156 72.441406 190.691406 71.941406 191.085938 71.679688 C 191.484375 71.421875 191.816406 71.199219 191.828125 71.1875 C 191.839844 71.175781 191.753906 71.03125 191.632813 70.863281 C 191.511719 70.695313 191.40625 70.550781 191.402344 70.542969 C 191.398438 70.53125 191.175781 70.628906 190.910156 70.753906 C 190.253906 71.058594 189.386719 71.355469 188.355469 71.628906 C 187.371094 71.886719 186.972656 72.078125 186.535156 72.503906 C 186.125 72.902344 184.921875 74.527344 183.8125 76.183594 C 183.429688 76.75 183.179688 77.007813 182.882813 77.132813 C 182.394531 77.335938 182.085938 77.222656 181.632813 76.683594 C 180.992188 75.914063 180.125 74.832031 180.125 74.796875 C 180.125 74.78125 180.273438 74.738281 180.457031 74.703125 C 181.328125 74.53125 181.871094 74.195313 183.296875 72.949219 C 184.421875 71.96875 185.085938 71.453125 185.5 71.242188 C 185.871094 71.054688 186.644531 70.84375 187.472656 70.703125 C 188.390625 70.546875 189.226563 70.335938 190.179688 70.027344 C 190.613281 69.886719 190.972656 69.765625 190.972656 69.757813 C 190.972656 69.726563 190.695313 69.078125 190.671875 69.054688 C 190.660156 69.042969 190.441406 69.066406 190.1875 69.113281 C 189.480469 69.242188 188.496094 69.316406 187.449219 69.316406 C 186.378906 69.316406 186.027344 69.378906 185.476563 69.671875 C 185.09375 69.878906 184.046875 70.707031 182.464844 72.054688 C 181.273438 73.070313 181.25 73.089844 180.867188 73.183594 C 180.527344 73.265625 180.1875 73.183594 179.976563 72.964844 C 179.894531 72.878906 179.570313 72.234375 179.261719 71.539063 L 178.695313 70.269531 L 179.367188 70.230469 C 180.238281 70.183594 180.683594 70.035156 182.375 69.214844 C 184.765625 68.054688 184.804688 68.042969 186.984375 68.191406 C 188.074219 68.261719 188.75 68.28125 189.351563 68.25 C 190.601563 68.1875 190.484375 68.21875 190.464844 67.953125 C 190.429688 67.484375 190.398438 67.417969 190.203125 67.386719 C 190.101563 67.375 189.707031 67.320313 189.328125 67.273438 C 188.613281 67.179688 187.910156 67.027344 186.902344 66.75 C 186.398438 66.609375 186.253906 66.59375 185.75 66.617188 C 184.992188 66.65625 184.480469 66.851563 181.683594 68.195313 C 180.476563 68.773438 180.355469 68.816406 179.980469 68.835938 C 179.640625 68.855469 179.539063 68.835938 179.34375 68.726563 C 179.210938 68.648438 179.074219 68.507813 179.015625 68.390625 C 178.921875 68.195313 178.46875 65.527344 178.523438 65.472656 C 178.535156 65.460938 178.648438 65.484375 178.773438 65.527344 C 179.597656 65.820313 180.417969 65.796875 182.328125 65.425781 C 184.898438 64.933594 185.007813 64.9375 186.960938 65.601563 C 188.191406 66.019531 189.535156 66.382813 190.140625 66.460938 L 190.429688 66.5 L 190.488281 66.125 L 190.542969 65.75 L 190.050781 65.5625 C 189.289063 65.277344 188.433594 64.859375 187.683594 64.410156 C 186.75 63.847656 186.515625 63.765625 185.773438 63.730469 C 185.089844 63.699219 184.632813 63.761719 181.980469 64.246094 C 180.890625 64.441406 180.339844 64.519531 180.191406 64.492188 C 179.710938 64.40625 179.351563 64.113281 179.285156 63.757813 C 179.257813 63.601563 179.40625 61.855469 179.519531 61.019531 L 179.554688 60.769531 L 179.738281 60.890625 C 180.113281 61.144531 180.859375 61.460938 181.277344 61.546875 C 181.515625 61.59375 182.4375 61.691406 183.324219 61.757813 C 185.824219 61.941406 186.035156 62.007813 187.597656 63.058594 C 189.085938 64.0625 190.648438 64.9375 190.796875 64.84375 C 190.820313 64.828125 190.902344 64.671875 190.972656 64.492188 C 191.097656 64.1875 191.101563 64.164063 191.003906 64.109375 C 190.621094 63.894531 189.597656 63.039063 188.804688 62.269531 C 187.34375 60.851563 187.363281 60.859375 183.265625 60.523438 C 181.425781 60.375 181.238281 60.324219 180.921875 59.886719 C 180.667969 59.539063 180.707031 59.308594 181.273438 57.832031 C 181.539063 57.152344 181.761719 56.582031 181.773438 56.570313 C 181.785156 56.554688 181.898438 56.664063 182.027344 56.8125 C 182.355469 57.179688 182.90625 57.585938 183.382813 57.804688 C 183.605469 57.90625 184.40625 58.203125 185.160156 58.460938 C 187.570313 59.296875 187.707031 59.382813 189.035156 60.921875 C 190.058594 62.109375 191.503906 63.496094 191.609375 63.390625 C 191.632813 63.367188 191.746094 63.230469 191.855469 63.089844 L 192.054688 62.835938 L 191.652344 62.339844 C 191.171875 61.742188 190.613281 60.914063 190.277344 60.285156 C 189.605469 59.039063 189.179688 58.671875 187.753906 58.117188 C 187.507813 58.019531 187.253906 57.921875 187.191406 57.894531 C 187.128906 57.863281 186.542969 57.65625 185.894531 57.425781 C 183.875 56.710938 183.851563 56.699219 183.59375 56.421875 C 183.152344 55.945313 183.160156 55.511719 183.621094 54.964844 C 183.683594 54.894531 184.015625 54.433594 184.363281 53.941406 C 184.714844 53.449219 185.011719 53.046875 185.027344 53.046875 C 185.046875 53.046875 185.121094 53.183594 185.203125 53.34375 C 185.410156 53.777344 185.847656 54.328125 186.226563 54.644531 C 186.410156 54.796875 187.113281 55.292969 187.789063 55.753906 C 189.878906 57.171875 190.015625 57.324219 190.890625 59.101563 C 191.496094 60.34375 191.800781 60.890625 192.320313 61.671875 C 192.507813 61.957031 192.671875 62.199219 192.679688 62.210938 C 192.691406 62.222656 192.835938 62.132813 193.003906 62.011719 C 193.171875 61.890625 193.316406 61.789063 193.324219 61.785156 C 193.332031 61.777344 193.234375 61.550781 193.109375 61.277344 C 192.796875 60.601563 192.507813 59.757813 192.238281 58.746094 C 191.835938 57.210938 191.671875 57.007813 189.671875 55.585938 C 189.101563 55.179688 188.289063 54.609375 187.863281 54.320313 C 187.441406 54.027344 187.042969 53.734375 186.980469 53.664063 C 186.804688 53.464844 186.648438 53.09375 186.644531 52.882813 C 186.644531 52.488281 186.765625 52.34375 187.878906 51.4375 C 188.472656 50.957031 188.984375 50.554688 189.015625 50.546875 C 189.050781 50.542969 189.125 50.714844 189.183594 50.9375 C 189.410156 51.8125 189.691406 52.273438 190.714844 53.449219 C 192.683594 55.703125 192.8125 55.929688 193.140625 57.730469 C 193.355469 58.914063 193.53125 59.625 193.832031 60.542969 C 193.976563 60.988281 194.097656 61.351563 194.105469 61.351563 C 194.113281 61.351563 194.273438 61.289063 194.464844 61.210938 C 194.710938 61.109375 194.808594 61.039063 194.804688 60.964844 C 194.800781 60.910156 194.75 60.578125 194.695313 60.226563 C 194.636719 59.839844 194.582031 59.007813 194.554688 58.09375 C 194.507813 56.46875 194.484375 56.351563 194.113281 55.714844 C 193.921875 55.390625 193.074219 54.335938 191.808594 52.839844 C 191.296875 52.238281 190.847656 51.691406 190.808594 51.621094 C 190.578125 51.1875 190.617188 50.632813 190.902344 50.355469 C 190.988281 50.273438 191.628906 49.949219 192.328125 49.640625 L 193.597656 49.074219 L 193.636719 49.746094 C 193.660156 50.179688 193.71875 50.5625 193.800781 50.824219 C 193.867188 51.042969 194.269531 51.953125 194.695313 52.84375 C 195.796875 55.152344 195.832031 55.316406 195.675781 57.402344 C 195.582031 58.648438 195.582031 60.222656 195.679688 60.710938 L 195.710938 60.871094 L 196.0625 60.824219 C 196.257813 60.796875 196.425781 60.761719 196.441406 60.75 C 196.453125 60.734375 196.488281 60.496094 196.515625 60.21875 C 196.613281 59.28125 196.722656 58.753906 197.140625 57.199219 C 197.28125 56.675781 197.292969 55.992188 197.171875 55.515625 C 197.035156 54.996094 196.398438 53.546875 195.433594 51.574219 C 195.046875 50.78125 195.042969 50.757813 195.039063 50.296875 C 195.039063 49.878906 195.054688 49.8125 195.195313 49.625 C 195.285156 49.511719 195.4375 49.390625 195.542969 49.359375 C 195.769531 49.285156 198.355469 48.871094 198.386719 48.902344 C 198.398438 48.914063 198.355469 49.089844 198.289063 49.296875 C 198.214844 49.535156 198.160156 49.894531 198.140625 50.304688 C 198.109375 50.976563 198.117188 51.03125 198.492188 52.988281 C 198.921875 55.238281 198.914063 55.429688 198.261719 57.34375 C 197.824219 58.632813 197.613281 59.378906 197.460938 60.183594 C 197.335938 60.839844 197.320313 60.808594 197.746094 60.871094 L 198.117188 60.925781 L 198.273438 60.492188 C 198.511719 59.828125 199.003906 58.816406 199.457031 58.054688 C 200.027344 57.105469 200.097656 56.898438 200.128906 56.132813 C 200.160156 55.453125 200.015625 54.445313 199.539063 51.921875 C 199.316406 50.757813 199.316406 50.542969 199.515625 50.148438 C 199.648438 49.890625 199.867188 49.710938 200.109375 49.664063 C 200.261719 49.636719 201.996094 49.785156 202.847656 49.902344 L 203.09375 49.9375 L 202.972656 50.121094 C 202.71875 50.496094 202.402344 51.242188 202.316406 51.660156 C 202.269531 51.898438 202.175781 52.8125 202.109375 53.695313 C 201.921875 56.21875 201.867188 56.394531 200.796875 57.988281 C 199.800781 59.472656 198.929688 61.03125 199.019531 61.175781 C 199.035156 61.203125 199.195313 61.28125 199.371094 61.355469 C 199.679688 61.480469 199.699219 61.480469 199.753906 61.386719 C 199.96875 61.003906 200.828125 59.976563 201.59375 59.183594 C 202.964844 57.773438 202.980469 57.730469 203.257813 54.628906 C 203.320313 53.933594 203.386719 53.089844 203.410156 52.753906 C 203.453125 52.085938 203.535156 51.792969 203.757813 51.503906 C 204.117188 51.03125 204.394531 51.03125 205.65625 51.519531 C 206.195313 51.726563 206.785156 51.949219 206.96875 52.015625 C 207.152344 52.078125 207.300781 52.144531 207.300781 52.160156 C 207.300781 52.175781 207.183594 52.292969 207.042969 52.417969 C 206.695313 52.722656 206.277344 53.285156 206.082031 53.710938 C 205.921875 54.066406 205.617188 54.894531 205.167969 56.214844 C 204.625 57.804688 204.335938 58.222656 202.929688 59.433594 C 202.503906 59.796875 201.957031 60.296875 201.714844 60.539063 C 201.226563 61.023438 200.414063 61.929688 200.445313 61.957031 C 200.457031 61.96875 200.589844 62.078125 200.746094 62.207031 L 201.027344 62.4375 L 201.523438 62.035156 C 202.136719 61.539063 202.941406 61 203.664063 60.601563 C 205.039063 59.847656 205.230469 59.566406 206.179688 56.972656 C 206.417969 56.320313 206.636719 55.730469 206.664063 55.667969 C 206.691406 55.605469 206.773438 55.371094 206.84375 55.148438 C 207.132813 54.230469 207.441406 53.808594 207.917969 53.679688 C 208.238281 53.59375 208.460938 53.679688 209.039063 54.097656 C 209.3125 54.292969 209.824219 54.664063 210.175781 54.917969 C 210.53125 55.171875 210.820313 55.390625 210.816406 55.410156 C 210.816406 55.425781 210.683594 55.503906 210.519531 55.582031 C 209.882813 55.890625 209.261719 56.46875 208.734375 57.238281 C 208.632813 57.390625 208.527344 57.523438 208.5 57.535156 C 208.476563 57.546875 208.453125 57.578125 208.453125 57.609375 C 208.453125 57.636719 208.203125 58.03125 207.898438 58.484375 C 206.660156 60.308594 206.570313 60.382813 204.359375 61.480469 C 203.675781 61.820313 202.792969 62.308594 202.394531 62.566406 C 202 62.824219 201.664063 63.046875 201.652344 63.058594 C 201.640625 63.070313 201.730469 63.214844 201.851563 63.382813 C 201.972656 63.550781 202.074219 63.695313 202.078125 63.703125 C 202.085938 63.710938 202.3125 63.617188 202.585938 63.488281 C 203.261719 63.175781 204.105469 62.886719 205.117188 62.621094 C 206.757813 62.1875 206.859375 62.09375 209.121094 58.871094 C 209.242188 58.695313 209.492188 58.332031 209.671875 58.0625 C 210.167969 57.320313 210.542969 57.023438 210.984375 57.023438 C 211.335938 57.023438 211.5 57.140625 212.015625 57.761719 C 212.898438 58.828125 213.351563 59.410156 213.328125 59.449219 C 213.3125 59.472656 213.199219 59.507813 213.074219 59.527344 C 212.675781 59.589844 212.035156 59.859375 211.605469 60.140625 C 211.378906 60.289063 210.683594 60.855469 210.058594 61.398438 C 208.117188 63.074219 207.867188 63.210938 206.140625 63.515625 C 205.101563 63.695313 204.269531 63.902344 203.304688 64.214844 C 202.867188 64.359375 202.511719 64.480469 202.511719 64.484375 C 202.511719 64.519531 202.789063 65.167969 202.8125 65.191406 C 202.828125 65.210938 202.96875 65.195313 203.121094 65.160156 C 203.671875 65.035156 204.980469 64.929688 205.976563 64.929688 C 207.109375 64.929688 207.445313 64.871094 208.007813 64.570313 C 208.378906 64.371094 209.382813 63.582031 210.832031 62.34375 C 212.34375 61.054688 212.359375 61.042969 212.898438 61.042969 C 213.273438 61.039063 213.511719 61.199219 213.703125 61.582031 C 213.847656 61.863281 214.800781 63.988281 214.800781 64.023438 C 214.800781 64.027344 214.496094 64.035156 214.125 64.039063 C 213.257813 64.042969 212.890625 64.164063 211.109375 65.03125 C 208.820313 66.140625 208.550781 66.207031 206.839844 66.078125 C 205.722656 65.992188 203.710938 65.976563 203.257813 66.046875 L 202.992188 66.085938 L 203.046875 66.445313 C 203.074219 66.640625 203.109375 66.8125 203.117188 66.824219 C 203.128906 66.835938 203.441406 66.878906 203.820313 66.921875 C 204.699219 67.023438 205.5 67.191406 206.261719 67.425781 C 206.808594 67.59375 206.9375 67.613281 207.589844 67.609375 C 208.269531 67.609375 208.335938 67.59375 208.800781 67.414063 C 209.289063 67.222656 210.703125 66.578125 212.347656 65.800781 C 213.125 65.433594 213.25 65.390625 213.5625 65.390625 C 213.992188 65.394531 214.328125 65.5625 214.464844 65.851563 C 214.558594 66.046875 215.011719 68.71875 214.960938 68.769531 C 214.945313 68.785156 214.832031 68.757813 214.710938 68.71875 C 213.871094 68.425781 213.019531 68.449219 211.160156 68.816406 C 208.640625 69.3125 208.464844 69.308594 206.523438 68.644531 C 205.296875 68.226563 203.953125 67.859375 203.34375 67.78125 L 203.050781 67.742188 L 202.996094 68.121094 L 202.9375 68.496094 L 203.433594 68.679688 C 204.179688 68.964844 205.027344 69.375 205.78125 69.824219 C 206.75 70.398438 206.976563 70.476563 207.710938 70.511719 C 208.394531 70.542969 208.847656 70.480469 211.5 70 C 212.59375 69.800781 213.140625 69.726563 213.289063 69.753906 C 213.773438 69.839844 214.132813 70.132813 214.199219 70.488281 C 214.226563 70.644531 214.078125 72.378906 213.960938 73.226563 L 213.929688 73.476563 L 213.746094 73.351563 C 213.367188 73.097656 212.625 72.78125 212.207031 72.695313 C 211.96875 72.648438 211.046875 72.554688 210.15625 72.488281 C 207.660156 72.300781 207.445313 72.238281 205.886719 71.183594 C 204.390625 70.179688 202.835938 69.308594 202.691406 69.398438 C 202.664063 69.414063 202.582031 69.574219 202.507813 69.753906 C 202.382813 70.058594 202.382813 70.082031 202.476563 70.132813 C 202.867188 70.351563 203.894531 71.214844 204.679688 71.976563 C 206.128906 73.382813 206.164063 73.394531 210.042969 73.699219 C 211.773438 73.835938 211.996094 73.875 212.320313 74.109375 C 212.625 74.332031 212.746094 74.574219 212.710938 74.90625 C 212.6875 75.117188 211.796875 77.582031 211.710938 77.675781 C 211.699219 77.6875 211.582031 77.578125 211.453125 77.433594 C 211.136719 77.070313 210.578125 76.660156 210.128906 76.453125 C 209.921875 76.359375 209.246094 76.109375 208.628906 75.890625 C 206.394531 75.117188 206.03125 74.945313 205.441406 74.398438 C 205.246094 74.21875 204.796875 73.734375 204.441406 73.320313 C 203.433594 72.144531 201.976563 70.746094 201.875 70.851563 C 201.847656 70.878906 201.738281 71.015625 201.625 71.15625 L 201.425781 71.410156 L 201.828125 71.90625 C 202.324219 72.519531 202.871094 73.335938 203.230469 74.003906 C 204.007813 75.445313 204.324219 75.648438 207.53125 76.792969 C 209.632813 77.542969 209.628906 77.542969 209.890625 77.824219 C 210.164063 78.121094 210.265625 78.433594 210.1875 78.722656 C 210.15625 78.832031 209.902344 79.226563 209.625 79.597656 C 209.347656 79.972656 208.976563 80.484375 208.800781 80.738281 C 208.492188 81.1875 208.398438 81.277344 208.398438 81.125 C 208.398438 80.964844 207.695313 79.988281 207.375 79.703125 C 207.191406 79.539063 206.652344 79.140625 206.175781 78.820313 C 204.171875 77.472656 203.75 77.132813 203.367188 76.570313 C 203.238281 76.382813 202.828125 75.613281 202.453125 74.863281 C 202.074219 74.113281 201.554688 73.171875 201.296875 72.777344 C 201.039063 72.378906 200.816406 72.046875 200.804688 72.035156 C 200.792969 72.023438 200.648438 72.109375 200.480469 72.230469 C 200.3125 72.351563 200.167969 72.457031 200.160156 72.460938 C 200.152344 72.464844 200.246094 72.691406 200.375 72.964844 C 200.6875 73.640625 200.976563 74.488281 201.242188 75.5 C 201.488281 76.421875 201.605469 76.703125 201.929688 77.109375 C 202.300781 77.578125 203.035156 78.144531 205.195313 79.628906 C 205.765625 80.023438 206.320313 80.425781 206.425781 80.527344 C 206.660156 80.746094 206.835938 81.101563 206.835938 81.359375 C 206.839844 81.761719 206.722656 81.898438 205.566406 82.835938 C 204.953125 83.328125 204.433594 83.722656 204.414063 83.710938 C 204.390625 83.695313 204.355469 83.582031 204.335938 83.453125 C 204.273438 83.058594 204.003906 82.414063 203.722656 81.988281 C 203.574219 81.761719 203.054688 81.121094 202.570313 80.566406 C 200.824219 78.5625 200.664063 78.273438 200.34375 76.507813 C 200.128906 75.332031 199.953125 74.617188 199.652344 73.699219 C 199.507813 73.253906 199.382813 72.890625 199.378906 72.890625 C 199.34375 72.890625 198.695313 73.167969 198.671875 73.191406 C 198.660156 73.203125 198.683594 73.421875 198.730469 73.675781 C 198.859375 74.382813 198.933594 75.367188 198.933594 76.414063 C 198.933594 77.484375 198.996094 77.835938 199.289063 78.386719 C 199.496094 78.769531 200.34375 79.84375 201.683594 81.414063 C 202.691406 82.589844 202.707031 82.613281 202.800781 82.996094 C 202.882813 83.335938 202.800781 83.675781 202.582031 83.886719 C 202.496094 83.96875 201.851563 84.292969 201.15625 84.605469 L 199.886719 85.171875 L 199.847656 84.5 C 199.796875 83.597656 199.703125 83.324219 198.792969 81.402344 C 197.941406 79.613281 197.871094 79.433594 197.773438 78.78125 C 197.714844 78.40625 197.722656 78.074219 197.808594 76.863281 C 197.902344 75.496094 197.898438 74.03125 197.800781 73.527344 C 197.769531 73.375 197.769531 73.375 197.417969 73.421875 C 197.226563 73.445313 197.054688 73.480469 197.042969 73.496094 C 197.027344 73.507813 196.992188 73.75 196.964844 74.027344 C 196.9375 74.304688 196.875 74.761719 196.824219 75.039063 C 196.746094 75.507813 196.667969 75.828125 196.339844 77.042969 C 196.199219 77.558594 196.1875 78.25 196.308594 78.726563 C 196.429688 79.179688 196.761719 79.960938 197.699219 81.953125 C 198.421875 83.492188 198.472656 83.621094 198.472656 83.945313 C 198.472656 84.328125 198.347656 84.621094 198.113281 84.796875 C 198.007813 84.875 197.628906 84.960938 196.820313 85.09375 C 195.027344 85.390625 195.042969 85.386719 195.09375 85.261719 M 197.238281 68.769531 C 197.667969 68.640625 198.066406 68.304688 198.269531 67.902344 C 198.417969 67.613281 198.445313 67.5 198.445313 67.125 C 198.441406 66.597656 198.308594 66.265625 197.953125 65.910156 C 197.601563 65.554688 197.269531 65.421875 196.742188 65.421875 C 196.414063 65.425781 196.238281 65.457031 196.003906 65.558594 C 195.246094 65.898438 194.847656 66.792969 195.09375 67.609375 C 195.371094 68.53125 196.320313 69.042969 197.238281 68.769531 "
     id="path8" />
  <path
     fill="none"
     stroke-width="0.198"
     stroke-linecap="butt"
     stroke-linejoin="miter"
     stroke="rgb(100%, 100%, 100%)"
     stroke-opacity="1"
     stroke-miterlimit="4"
     d="M 0.00008125 0.00063125 C -5.01945 0.442038 -9.316325 2.414694 -12.753825 5.848288 C -16.14445 9.242819 -18.156169 13.570944 -18.578044 18.402975 C -18.656169 19.328756 -18.6132 21.664694 -18.496013 22.527975 C -17.886638 27.082663 -15.937419 31.059225 -12.753825 34.242819 C -9.70695 37.285788 -5.816325 39.26235 -1.617106 39.895163 C 0.687581 40.242819 3.117269 40.192038 5.367269 39.746725 C 9.242269 38.977194 12.816487 37.063131 15.6368 34.242819 C 18.457112 31.422506 20.378987 27.836569 21.144612 23.969381 C 21.425862 22.535788 21.492269 21.805319 21.492269 20.047506 C 21.496175 18.285788 21.429769 17.582663 21.144612 16.121725 C 20.117269 10.910788 16.984456 6.254538 12.515706 3.297506 C 9.890706 1.559225 7.179769 0.551413 3.921956 0.1061 C 3.289144 0.0201625 0.601644 -0.0540562 0.00008125 0.00063125 Z M 3.461019 1.207663 C 6.582112 1.531881 9.656331 2.664694 12.175862 4.426413 C 13.226644 5.160788 13.925862 5.750631 14.859456 6.684225 C 16.781331 8.610006 18.1368 10.684225 19.117269 13.207663 C 20.394612 16.492819 20.722737 20.195944 20.04305 23.680319 C 19.113362 28.44985 16.363362 32.695944 12.347737 35.547506 C 9.91805 37.274069 6.98055 38.426413 3.98055 38.828756 C 2.925862 38.969381 2.867269 38.973288 1.500081 38.977194 C -1.445231 38.9811 -4.042888 38.414694 -6.667888 37.184225 C -9.460856 35.879538 -12.160075 33.613913 -13.996013 31.039694 C -14.515544 30.309225 -14.562419 30.238913 -14.933513 29.594381 C -16.277263 27.274069 -17.105388 24.758444 -17.398356 22.102194 C -17.507731 21.110006 -17.523356 19.195944 -17.429606 18.19985 C -17.273356 16.5436 -16.835856 14.746725 -16.203044 13.133444 C -13.8632 7.160788 -8.628825 2.758444 -2.335856 1.461569 C -1.9882 1.391256 -1.663981 1.328756 -1.617106 1.320944 C -1.570231 1.317038 -1.374919 1.289694 -1.183513 1.270163 C -0.992106 1.246725 -0.796794 1.211569 -0.749919 1.195944 C -0.703044 1.180319 -0.234294 1.152975 0.289144 1.13735 C 0.812581 1.121725 1.246175 1.098288 1.253987 1.094381 C 1.29305 1.059225 2.753987 1.133444 3.461019 1.207663 Z M -0.20695 1.906881 C -0.0272625 2.363913 0.027425 2.754538 0.0235187 3.485006 C 0.0196125 4.1686 -0.0155438 4.434225 -0.249919 5.629538 C -0.749919 8.184225 -0.746013 8.309225 -0.08195 10.266256 C 0.35555 11.555319 0.566487 12.301413 0.722737 13.1061 C 0.847737 13.76235 0.859456 13.7311 0.437581 13.7936 L 0.0703937 13.848288 L -0.1757 13.211569 C -0.472575 12.442038 -0.843669 11.692038 -1.351481 10.844381 C -1.89445 9.942038 -1.933513 9.7936 -1.929606 8.820944 C -1.921794 7.9811 -1.843669 7.414694 -1.351481 4.813131 C -1.136638 3.680319 -1.132731 3.465475 -1.33195 3.070944 C -1.464763 2.813131 -1.683513 2.633444 -1.9257 2.586569 C -2.078044 2.559225 -3.773356 2.707663 -4.663981 2.82485 L -4.910075 2.860006 L -4.788981 3.0436 C -4.535075 3.4186 -4.218669 4.160788 -4.132731 4.582663 C -4.085856 4.820944 -3.992106 5.738913 -3.9257 6.629538 C -3.7382 9.129538 -3.679606 9.32485 -2.621013 10.899069 C -1.609294 12.406881 -0.746013 13.953756 -0.835856 14.098288 C -0.851481 14.121725 -1.011638 14.203756 -1.191325 14.277975 C -1.496013 14.402975 -1.51945 14.402975 -1.570231 14.309225 C -1.785075 13.926413 -2.64445 12.899069 -3.413981 12.1061 C -4.781169 10.695944 -4.8007 10.63735 -5.074138 7.551413 C -5.136638 6.8561 -5.20695 6.01235 -5.226481 5.676413 C -5.273356 5.008444 -5.355388 4.715475 -5.574138 4.426413 C -5.945231 3.942038 -6.210856 3.94985 -7.593669 4.485006 C -8.195231 4.719381 -8.781169 4.942038 -8.902263 4.9811 C -9.01945 5.020163 -9.117106 5.055319 -9.117106 5.063131 C -9.117106 5.070944 -8.953044 5.246725 -8.749919 5.453756 C -8.085856 6.133444 -7.788981 6.715475 -7.2382 8.395163 C -6.878825 9.496725 -6.511638 10.410788 -6.285075 10.770163 C -6.011638 11.195944 -5.628825 11.594381 -4.761638 12.344381 C -4.347575 12.69985 -3.804606 13.195944 -3.5507 13.445944 C -3.0507 13.938131 -2.230388 14.852194 -2.261638 14.879538 C -2.273356 14.891256 -2.406169 15.004538 -2.562419 15.129538 L -2.843669 15.363913 L -3.339763 14.957663 C -3.953044 14.465475 -4.753825 13.926413 -5.484294 13.524069 C -6.499919 12.965475 -6.874919 12.590475 -7.265544 11.770163 C -7.468669 11.340475 -8.273356 9.211569 -8.636638 8.145163 C -8.941325 7.235006 -8.996013 7.133444 -9.285075 6.871725 C -9.585856 6.602194 -9.898356 6.51235 -10.195231 6.617819 C -10.417888 6.695944 -12.632731 8.266256 -12.636638 8.344381 C -12.636638 8.367819 -12.605388 8.391256 -12.562419 8.391256 C -12.402263 8.391256 -11.4257 9.094381 -11.140544 9.410788 C -10.976481 9.594381 -10.578044 10.133444 -10.257731 10.610006 C -8.464763 13.274069 -8.480388 13.258444 -6.222575 14.375631 C -5.515544 14.727194 -4.609294 15.227194 -4.214763 15.488913 C -3.816325 15.746725 -3.484294 15.969381 -3.472575 15.9811 C -3.460856 15.992819 -3.546794 16.13735 -3.667888 16.305319 C -3.788981 16.473288 -3.89445 16.617819 -3.898356 16.625631 C -3.902263 16.63735 -4.124919 16.539694 -4.390544 16.414694 C -5.046794 16.110006 -5.913981 15.813131 -6.945231 15.539694 C -7.929606 15.281881 -8.328044 15.090475 -8.765544 14.664694 C -9.1757 14.266256 -10.378825 12.641256 -11.4882 10.985006 C -11.871013 10.4186 -12.121013 10.160788 -12.417888 10.035788 C -12.906169 9.832663 -13.214763 9.945944 -13.667888 10.485006 C -14.308513 11.254538 -15.1757 12.336569 -15.1757 12.371725 C -15.1757 12.38735 -15.027263 12.430319 -14.843669 12.465475 C -13.972575 12.63735 -13.429606 12.973288 -12.003825 14.219381 C -10.878825 15.19985 -10.214763 15.715475 -9.8007 15.926413 C -9.429606 16.113913 -8.656169 16.32485 -7.828044 16.465475 C -6.910075 16.621725 -6.074138 16.832663 -5.121013 17.141256 C -4.687419 17.281881 -4.328044 17.402975 -4.328044 17.410788 C -4.328044 17.442038 -4.605388 18.090475 -4.628825 18.113913 C -4.640544 18.125631 -4.859294 18.102194 -5.1132 18.055319 C -5.820231 17.926413 -6.804606 17.852194 -7.851481 17.852194 C -8.921794 17.852194 -9.273356 17.789694 -9.824138 17.496725 C -10.20695 17.289694 -11.253825 16.461569 -12.835856 15.113913 C -14.027263 14.098288 -14.0507 14.078756 -14.433513 13.985006 C -14.773356 13.902975 -15.1132 13.985006 -15.324138 14.203756 C -15.406169 14.289694 -15.730388 14.934225 -16.038981 15.629538 L -16.605388 16.899069 L -15.933513 16.938131 C -15.062419 16.985006 -14.617106 17.133444 -12.9257 17.953756 C -10.535075 19.113913 -10.496013 19.125631 -8.316325 18.977194 C -7.226481 18.906881 -6.5507 18.88735 -5.949138 18.9186 C -4.699138 18.9811 -4.816325 18.94985 -4.835856 19.215475 C -4.871013 19.684225 -4.902263 19.750631 -5.097575 19.781881 C -5.199138 19.7936 -5.593669 19.848288 -5.972575 19.895163 C -6.687419 19.988913 -7.390544 20.141256 -8.398356 20.4186 C -8.902263 20.559225 -9.046794 20.57485 -9.5507 20.551413 C -10.308513 20.51235 -10.820231 20.317038 -13.617106 18.973288 C -14.824138 18.395163 -14.945231 18.352194 -15.320231 18.332663 C -15.660075 18.313131 -15.761638 18.332663 -15.95695 18.442038 C -16.089763 18.520163 -16.226481 18.660788 -16.285075 18.777975 C -16.378825 18.973288 -16.83195 21.641256 -16.777263 21.695944 C -16.765544 21.707663 -16.652263 21.684225 -16.527263 21.641256 C -15.703044 21.348288 -14.882731 21.371725 -12.972575 21.742819 C -10.402263 22.235006 -10.292888 22.2311 -8.339763 21.567038 C -7.109294 21.149069 -5.765544 20.785788 -5.160075 20.707663 L -4.871013 20.6686 L -4.812419 21.0436 L -4.757731 21.4186 L -5.249919 21.6061 C -6.011638 21.891256 -6.867106 22.309225 -7.617106 22.758444 C -8.5507 23.320944 -8.785075 23.402975 -9.527263 23.438131 C -10.210856 23.469381 -10.667888 23.406881 -13.320231 22.922506 C -14.410075 22.727194 -14.960856 22.649069 -15.109294 22.676413 C -15.589763 22.76235 -15.949138 23.055319 -16.015544 23.410788 C -16.042888 23.567038 -15.89445 25.313131 -15.781169 26.149069 L -15.746013 26.399069 L -15.562419 26.277975 C -15.187419 26.024069 -14.441325 25.707663 -14.023356 25.621725 C -13.785075 25.57485 -12.8632 25.477194 -11.976481 25.410788 C -9.476481 25.227194 -9.265544 25.160788 -7.703044 24.110006 C -6.214763 23.1061 -4.652263 22.2311 -4.503825 22.32485 C -4.480388 22.340475 -4.398356 22.496725 -4.328044 22.676413 C -4.203044 22.9811 -4.199138 23.004538 -4.296794 23.059225 C -4.679606 23.274069 -5.703044 24.129538 -6.496013 24.899069 C -7.95695 26.317038 -7.937419 26.309225 -12.035075 26.645163 C -13.874919 26.7936 -14.062419 26.844381 -14.378825 27.281881 C -14.632731 27.629538 -14.593669 27.860006 -14.027263 29.336569 C -13.761638 30.016256 -13.538981 30.586569 -13.527263 30.598288 C -13.515544 30.613913 -13.402263 30.504538 -13.273356 30.3561 C -12.945231 29.988913 -12.39445 29.582663 -11.917888 29.363913 C -11.695231 29.26235 -10.89445 28.965475 -10.140544 28.707663 C -7.730388 27.871725 -7.593669 27.785788 -6.265544 26.246725 C -5.242106 25.059225 -3.796794 23.672506 -3.691325 23.777975 C -3.667888 23.801413 -3.554606 23.938131 -3.445231 24.078756 L -3.246013 24.332663 L -3.648356 24.828756 C -4.128825 25.426413 -4.687419 26.254538 -5.023356 26.883444 C -5.695231 28.129538 -6.121013 28.496725 -7.546794 29.051413 C -7.792888 29.149069 -8.046794 29.246725 -8.109294 29.274069 C -8.171794 29.305319 -8.757731 29.51235 -9.406169 29.742819 C -11.4257 30.457663 -11.449138 30.469381 -11.70695 30.746725 C -12.148356 31.223288 -12.140544 31.656881 -11.679606 32.203756 C -11.617106 32.274069 -11.285075 32.735006 -10.937419 33.227194 C -10.585856 33.719381 -10.288981 34.121725 -10.273356 34.121725 C -10.253825 34.121725 -10.179606 33.985006 -10.097575 33.82485 C -9.890544 33.391256 -9.453044 32.840475 -9.074138 32.524069 C -8.890544 32.371725 -8.187419 31.875631 -7.511638 31.414694 C -5.421794 29.996725 -5.285075 29.844381 -4.410075 28.067038 C -3.804606 26.82485 -3.499919 26.277975 -2.980388 25.496725 C -2.792888 25.211569 -2.628825 24.969381 -2.621013 24.957663 C -2.609294 24.945944 -2.464763 25.035788 -2.296794 25.156881 C -2.128825 25.277975 -1.984294 25.379538 -1.976481 25.383444 C -1.968669 25.391256 -2.066325 25.617819 -2.191325 25.891256 C -2.503825 26.567038 -2.792888 27.410788 -3.062419 28.422506 C -3.464763 29.957663 -3.628825 30.160788 -5.628825 31.582663 C -6.199138 31.988913 -7.011638 32.559225 -7.437419 32.848288 C -7.859294 33.141256 -8.257731 33.434225 -8.320231 33.504538 C -8.496013 33.703756 -8.652263 34.07485 -8.656169 34.285788 C -8.656169 34.680319 -8.535075 34.82485 -7.421794 35.7311 C -6.828044 36.211569 -6.316325 36.613913 -6.285075 36.621725 C -6.249919 36.625631 -6.1757 36.453756 -6.117106 36.2311 C -5.890544 35.3561 -5.609294 34.895163 -4.585856 33.719381 C -2.617106 31.465475 -2.4882 31.238913 -2.160075 29.438131 C -1.945231 28.254538 -1.76945 27.5436 -1.468669 26.625631 C -1.324138 26.180319 -1.203044 25.817038 -1.195231 25.817038 C -1.187419 25.817038 -1.027263 25.879538 -0.835856 25.957663 C -0.589763 26.059225 -0.492106 26.129538 -0.496013 26.203756 C -0.499919 26.258444 -0.5507 26.590475 -0.605388 26.942038 C -0.663981 27.328756 -0.718669 28.160788 -0.746013 29.07485 C -0.792888 30.69985 -0.816325 30.817038 -1.187419 31.453756 C -1.378825 31.777975 -2.226481 32.832663 -3.492106 34.328756 C -4.003825 34.930319 -4.453044 35.477194 -4.492106 35.547506 C -4.722575 35.9811 -4.683513 36.535788 -4.398356 36.813131 C -4.312419 36.895163 -3.671794 37.219381 -2.972575 37.527975 L -1.703044 38.094381 L -1.663981 37.422506 C -1.640544 36.988913 -1.58195 36.6061 -1.499919 36.344381 C -1.433513 36.125631 -1.031169 35.215475 -0.605388 34.32485 C 0.496175 32.016256 0.531331 31.852194 0.375081 29.766256 C 0.281331 28.520163 0.281331 26.945944 0.378987 26.457663 L 0.410237 26.297506 L 0.7618 26.344381 C 0.957112 26.371725 1.125081 26.406881 1.140706 26.4186 C 1.152425 26.434225 1.187581 26.672506 1.214925 26.94985 C 1.312581 27.88735 1.421956 28.414694 1.839925 29.969381 C 1.98055 30.492819 1.992269 31.176413 1.871175 31.652975 C 1.734456 32.172506 1.097737 33.621725 0.132894 35.594381 C -0.253825 36.38735 -0.257731 36.410788 -0.261638 36.871725 C -0.261638 37.289694 -0.246013 37.3561 -0.105388 37.5436 C -0.0155438 37.656881 0.1368 37.777975 0.242269 37.809225 C 0.468831 37.883444 3.054769 38.297506 3.086019 38.266256 C 3.097737 38.254538 3.054769 38.078756 2.988362 37.871725 C 2.914144 37.633444 2.859456 37.274069 2.839925 36.863913 C 2.808675 36.192038 2.816487 36.13735 3.191487 34.180319 C 3.621175 31.930319 3.613362 31.738913 2.961019 29.82485 C 2.523519 28.535788 2.312581 27.789694 2.160237 26.985006 C 2.035237 26.328756 2.019612 26.360006 2.445394 26.297506 L 2.816487 26.242819 L 2.972737 26.676413 C 3.211019 27.340475 3.703206 28.352194 4.156331 29.113913 C 4.726644 30.063131 4.796956 30.270163 4.828206 31.035788 C 4.859456 31.715475 4.714925 32.723288 4.238362 35.246725 C 4.015706 36.410788 4.015706 36.625631 4.214925 37.020163 C 4.347737 37.277975 4.566487 37.457663 4.808675 37.504538 C 4.961019 37.531881 6.695394 37.383444 7.546956 37.266256 L 7.79305 37.2311 L 7.671956 37.047506 C 7.41805 36.672506 7.101644 35.926413 7.015706 35.508444 C 6.968831 35.270163 6.875081 34.3561 6.808675 33.473288 C 6.621175 30.94985 6.566487 30.774069 5.496175 29.180319 C 4.500081 27.695944 3.628987 26.13735 3.718831 25.992819 C 3.734456 25.965475 3.894612 25.88735 4.070394 25.813131 C 4.378987 25.688131 4.398519 25.688131 4.453206 25.781881 C 4.66805 26.164694 5.527425 27.192038 6.29305 27.985006 C 7.664144 29.395163 7.679769 29.438131 7.957112 32.539694 C 8.019612 33.235006 8.086019 34.078756 8.109456 34.414694 C 8.152425 35.082663 8.234456 35.375631 8.457112 35.664694 C 8.816487 36.13735 9.093831 36.13735 10.35555 35.649069 C 10.894612 35.442038 11.484456 35.219381 11.66805 35.152975 C 11.851644 35.090475 12.000081 35.024069 12.000081 35.008444 C 12.000081 34.992819 11.882894 34.875631 11.742269 34.750631 C 11.394612 34.445944 10.976644 33.883444 10.781331 33.457663 C 10.621175 33.102194 10.316487 32.274069 9.867269 30.953756 C 9.3243 29.363913 9.035237 28.945944 7.628987 27.735006 C 7.203206 27.371725 6.656331 26.871725 6.414144 26.629538 C 5.925862 26.145163 5.113362 25.238913 5.144612 25.211569 C 5.156331 25.19985 5.289144 25.090475 5.445394 24.961569 L 5.726644 24.7311 L 6.222737 25.133444 C 6.836019 25.629538 7.640706 26.1686 8.363362 26.567038 C 9.738362 27.320944 9.929769 27.602194 10.878987 30.195944 C 11.117269 30.848288 11.336019 31.438131 11.363362 31.500631 C 11.390706 31.563131 11.472737 31.797506 11.54305 32.020163 C 11.832112 32.938131 12.140706 33.360006 12.617269 33.488913 C 12.937581 33.57485 13.160237 33.488913 13.738362 33.070944 C 14.0118 32.875631 14.523519 32.504538 14.875081 32.250631 C 15.23055 31.996725 15.519612 31.777975 15.515706 31.758444 C 15.515706 31.742819 15.382894 31.664694 15.218831 31.586569 C 14.582112 31.277975 13.961019 30.69985 13.433675 29.930319 C 13.332112 29.777975 13.226644 29.645163 13.1993 29.633444 C 13.175862 29.621725 13.152425 29.590475 13.152425 29.559225 C 13.152425 29.531881 12.902425 29.13735 12.597737 28.684225 C 11.359456 26.860006 11.269612 26.785788 9.058675 25.688131 C 8.375081 25.348288 7.492269 24.860006 7.093831 24.602194 C 6.6993 24.344381 6.363362 24.121725 6.351644 24.110006 C 6.339925 24.098288 6.429769 23.953756 6.550862 23.785788 C 6.671956 23.617819 6.773519 23.473288 6.777425 23.465475 C 6.785237 23.457663 7.0118 23.551413 7.285237 23.680319 C 7.961019 23.992819 8.804769 24.281881 9.816487 24.547506 C 11.457112 24.9811 11.558675 25.07485 13.820394 28.297506 C 13.941487 28.473288 14.191487 28.836569 14.371175 29.1061 C 14.867269 29.848288 15.242269 30.145163 15.683675 30.145163 C 16.035237 30.145163 16.1993 30.027975 16.714925 29.406881 C 17.597737 28.340475 18.050862 27.758444 18.027425 27.719381 C 18.0118 27.695944 17.898519 27.660788 17.773519 27.641256 C 17.375081 27.578756 16.734456 27.309225 16.304769 27.027975 C 16.078206 26.879538 15.382894 26.313131 14.757894 25.770163 C 12.816487 24.094381 12.566487 23.957663 10.839925 23.652975 C 9.800862 23.473288 8.968831 23.266256 8.003987 22.953756 C 7.566487 22.809225 7.211019 22.688131 7.211019 22.684225 C 7.211019 22.649069 7.488362 22.000631 7.5118 21.977194 C 7.527425 21.957663 7.66805 21.973288 7.820394 22.008444 C 8.371175 22.133444 9.679769 22.238913 10.675862 22.238913 C 11.808675 22.238913 12.144612 22.297506 12.707112 22.598288 C 13.078206 22.797506 14.082112 23.586569 15.531331 24.82485 C 17.04305 26.113913 17.058675 26.125631 17.597737 26.125631 C 17.972737 26.129538 18.211019 25.969381 18.402425 25.586569 C 18.546956 25.305319 19.500081 23.180319 19.500081 23.145163 C 19.500081 23.141256 19.195394 23.133444 18.8243 23.129538 C 17.957112 23.125631 17.589925 23.004538 15.808675 22.13735 C 13.519612 21.027975 13.250081 20.961569 11.539144 21.090475 C 10.421956 21.176413 8.410237 21.192038 7.957112 21.121725 L 7.691487 21.082663 L 7.746175 20.723288 C 7.773519 20.527975 7.808675 20.3561 7.816487 20.344381 C 7.828206 20.332663 8.140706 20.289694 8.519612 20.246725 C 9.398519 20.145163 10.1993 19.977194 10.961019 19.742819 C 11.507894 19.57485 11.6368 19.555319 12.289144 19.559225 C 12.968831 19.559225 13.035237 19.57485 13.500081 19.754538 C 13.988362 19.945944 15.402425 20.590475 17.046956 21.367819 C 17.8243 21.735006 17.9493 21.777975 18.2618 21.777975 C 18.691487 21.774069 19.027425 21.6061 19.164144 21.317038 C 19.257894 21.121725 19.711019 18.44985 19.660237 18.399069 C 19.644612 18.383444 19.531331 18.410788 19.410237 18.44985 C 18.570394 18.742819 17.718831 18.719381 15.859456 18.352194 C 13.339925 17.8561 13.164144 17.860006 11.222737 18.524069 C 9.996175 18.942038 8.652425 19.309225 8.04305 19.38735 L 7.750081 19.426413 L 7.695394 19.047506 L 7.6368 18.672506 L 8.132894 18.488913 C 8.878987 18.203756 9.726644 17.7936 10.48055 17.344381 C 11.4493 16.770163 11.675862 16.692038 12.410237 16.656881 C 13.093831 16.625631 13.546956 16.688131 16.1993 17.1686 C 17.29305 17.367819 17.839925 17.442038 17.988362 17.414694 C 18.472737 17.328756 18.832112 17.035788 18.898519 16.680319 C 18.925862 16.524069 18.777425 14.789694 18.660237 13.942038 L 18.628987 13.692038 L 18.445394 13.817038 C 18.066487 14.070944 17.3243 14.38735 16.906331 14.473288 C 16.66805 14.520163 15.746175 14.613913 14.85555 14.680319 C 12.359456 14.867819 12.144612 14.930319 10.586019 15.985006 C 9.089925 16.988913 7.535237 17.860006 7.390706 17.770163 C 7.363362 17.754538 7.281331 17.594381 7.207112 17.414694 C 7.082112 17.110006 7.082112 17.086569 7.175862 17.035788 C 7.566487 16.817038 8.593831 15.953756 9.378987 15.192038 C 10.828206 13.785788 10.863362 13.774069 14.742269 13.469381 C 16.472737 13.332663 16.695394 13.2936 17.019612 13.059225 C 17.3243 12.836569 17.445394 12.594381 17.410237 12.26235 C 17.3868 12.051413 16.496175 9.586569 16.410237 9.492819 C 16.398519 9.4811 16.281331 9.590475 16.152425 9.735006 C 15.836019 10.098288 15.277425 10.508444 14.828206 10.715475 C 14.621175 10.809225 13.945394 11.059225 13.328206 11.277975 C 11.093831 12.051413 10.73055 12.223288 10.140706 12.770163 C 9.945394 12.94985 9.496175 13.434225 9.140706 13.848288 C 8.132894 15.024069 6.675862 16.422506 6.5743 16.317038 C 6.546956 16.289694 6.437581 16.152975 6.3243 16.01235 L 6.125081 15.758444 L 6.527425 15.26235 C 7.023519 14.649069 7.570394 13.832663 7.929769 13.164694 C 8.707112 11.723288 9.023519 11.520163 12.23055 10.375631 C 14.332112 9.625631 14.328206 9.625631 14.589925 9.344381 C 14.863362 9.047506 14.964925 8.735006 14.8868 8.445944 C 14.85555 8.336569 14.601644 7.942038 14.3243 7.570944 C 14.046956 7.195944 13.675862 6.684225 13.500081 6.430319 C 13.191487 5.9811 13.097737 5.891256 13.097737 6.0436 C 13.097737 6.203756 12.394612 7.180319 12.0743 7.465475 C 11.890706 7.629538 11.351644 8.027975 10.875081 8.348288 C 8.871175 9.695944 8.4493 10.035788 8.066487 10.598288 C 7.937581 10.785788 7.527425 11.555319 7.152425 12.305319 C 6.773519 13.055319 6.253987 13.996725 5.996175 14.391256 C 5.738362 14.789694 5.515706 15.121725 5.503987 15.133444 C 5.492269 15.145163 5.347737 15.059225 5.179769 14.938131 C 5.0118 14.817038 4.867269 14.711569 4.859456 14.707663 C 4.851644 14.703756 4.945394 14.477194 5.0743 14.203756 C 5.3868 13.527975 5.675862 12.680319 5.941487 11.6686 C 6.187581 10.746725 6.304769 10.465475 6.628987 10.059225 C 7.000081 9.590475 7.734456 9.024069 9.894612 7.539694 C 10.464925 7.145163 11.019612 6.742819 11.125081 6.641256 C 11.359456 6.422506 11.535237 6.067038 11.535237 5.809225 C 11.539144 5.406881 11.421956 5.270163 10.265706 4.332663 C 9.652425 3.840475 9.132894 3.445944 9.113362 3.457663 C 9.089925 3.473288 9.054769 3.586569 9.035237 3.715475 C 8.972737 4.110006 8.703206 4.754538 8.421956 5.180319 C 8.273519 5.406881 7.753987 6.047506 7.269612 6.602194 C 5.523519 8.6061 5.363362 8.895163 5.04305 10.660788 C 4.828206 11.836569 4.652425 12.551413 4.351644 13.469381 C 4.207112 13.914694 4.082112 14.277975 4.078206 14.277975 C 4.04305 14.277975 3.394612 14.000631 3.371175 13.977194 C 3.359456 13.965475 3.382894 13.746725 3.429769 13.492819 C 3.558675 12.785788 3.632894 11.801413 3.632894 10.754538 C 3.632894 9.684225 3.695394 9.332663 3.988362 8.781881 C 4.195394 8.399069 5.04305 7.32485 6.382894 5.754538 C 7.390706 4.578756 7.406331 4.555319 7.500081 4.172506 C 7.582112 3.832663 7.500081 3.492819 7.281331 3.281881 C 7.195394 3.19985 6.550862 2.875631 5.85555 2.563131 L 4.586019 1.996725 L 4.546956 2.6686 C 4.496175 3.570944 4.402425 3.844381 3.492269 5.766256 C 2.640706 7.555319 2.570394 7.735006 2.472737 8.38735 C 2.414144 8.76235 2.421956 9.094381 2.507894 10.305319 C 2.601644 11.672506 2.597737 13.13735 2.500081 13.641256 C 2.468831 13.7936 2.468831 13.7936 2.117269 13.746725 C 1.925862 13.723288 1.753987 13.688131 1.742269 13.672506 C 1.726644 13.660788 1.691487 13.4186 1.664144 13.141256 C 1.6368 12.863913 1.5743 12.406881 1.523519 12.129538 C 1.445394 11.660788 1.367269 11.340475 1.039144 10.125631 C 0.898519 9.610006 0.8868 8.9186 1.007894 8.442038 C 1.128987 7.988913 1.461019 7.207663 2.398519 5.215475 C 3.121175 3.676413 3.171956 3.547506 3.171956 3.223288 C 3.171956 2.840475 3.046956 2.547506 2.812581 2.371725 C 2.707112 2.2936 2.328206 2.207663 1.519612 2.07485 C -0.273356 1.777975 -0.257731 1.781881 -0.20695 1.906881 Z M 1.937581 18.399069 C 2.367269 18.527975 2.765706 18.863913 2.968831 19.266256 C 3.117269 19.555319 3.144612 19.6686 3.144612 20.0436 C 3.140706 20.570944 3.007894 20.902975 2.652425 21.258444 C 2.300862 21.613913 1.968831 21.746725 1.441487 21.746725 C 1.113362 21.742819 0.937581 21.711569 0.703206 21.610006 C -0.0546063 21.270163 -0.453044 20.375631 -0.20695 19.559225 C 0.0703937 18.63735 1.019612 18.125631 1.937581 18.399069 Z M 1.937581 18.399069 "
     transform="matrix(1, 0, 0, -1, 195.3007, 87.1686)"
     id="path10"
     style="stroke:#000000;stroke-opacity:1" />
  <path
     fill-rule="nonzero"
     fill="rgb(100%, 100%, 100%)"
     fill-opacity="1"
     d="M 202.917969 67.070313 C 202.917969 70.480469 200.152344 73.246094 196.742188 73.246094 C 193.332031 73.246094 190.566406 70.480469 190.566406 67.070313 C 190.566406 63.660156 193.332031 60.894531 196.742188 60.894531 C 200.152344 60.894531 202.917969 63.660156 202.917969 67.070313 "
     id="path12"
     style="fill:#000000;fill-opacity:1" />
  <path
     fill="none"
     stroke-width="0.315"
     stroke-linecap="round"
     stroke-linejoin="bevel"
     stroke="rgb(100%, 100%, 100%)"
     stroke-opacity="1"
     stroke-miterlimit="4"
     d="M 0.00026875 0.0002875 C 0.00026875 -3.409869 -2.765356 -6.175494 -6.175512 -6.175494 C -9.585669 -6.175494 -12.351294 -3.409869 -12.351294 0.0002875 C -12.351294 3.410444 -9.585669 6.176069 -6.175512 6.176069 C -2.765356 6.176069 0.00026875 3.410444 0.00026875 0.0002875 Z M 0.00026875 0.0002875 "
     transform="matrix(1, 0, 0, -1, 202.9177, 67.0706)"
     id="path14"
     style="fill:#000000;fill-opacity:1;stroke:#000000;stroke-opacity:1" />
  <path
     fill-rule="nonzero"
     fill="rgb(100%, 100%, 100%)"
     fill-opacity="1"
     d="M 269.292969 35.753906 C 269.335938 35.660156 269.460938 35.5 269.570313 35.402344 L 269.765625 35.21875 L 269.6875 34.902344 C 269.644531 34.726563 269.433594 33.875 269.21875 33.007813 C 269.007813 32.140625 268.707031 30.925781 268.554688 30.308594 C 268.402344 29.691406 268.1875 28.789063 268.070313 28.308594 C 267.957031 27.824219 267.816406 27.253906 267.757813 27.035156 C 267.523438 26.144531 267.054688 24.171875 267.066406 24.121094 C 267.074219 24.089844 267.84375 23.488281 268.777344 22.78125 C 269.707031 22.074219 270.496094 21.46875 270.53125 21.4375 C 270.5625 21.402344 269.191406 22.191406 267.480469 23.1875 L 264.367188 25 L 263.878906 25.730469 C 263.609375 26.128906 262.949219 27.132813 262.410156 27.957031 L 261.425781 29.457031 L 260.183594 29.5 C 259.5 29.523438 258.917969 29.539063 258.894531 29.53125 L 258.84375 29.523438 L 259.023438 27.941406 C 259.121094 27.070313 259.195313 26.347656 259.191406 26.339844 C 259.1875 26.328125 258.832031 26.421875 258.40625 26.542969 L 257.625 26.769531 L 257.574219 26.695313 C 257.546875 26.65625 257.484375 26.414063 257.433594 26.152344 L 257.339844 25.675781 L 256.976563 25.738281 C 256.777344 25.773438 256.523438 25.792969 256.410156 25.78125 L 256.210938 25.765625 L 256.039063 25.46875 L 256.117188 25.277344 C 256.203125 25.078125 256.429688 24.785156 256.714844 24.519531 L 256.886719 24.359375 L 256.722656 23.492188 L 256.386719 23.210938 L 256.046875 22.925781 L 255.753906 23.019531 C 255.59375 23.070313 255.367188 23.125 255.246094 23.140625 L 255.027344 23.171875 L 254.824219 23.117188 L 254.625 23.0625 L 254.578125 22.984375 L 254.53125 22.902344 L 254.589844 22.6875 L 254.648438 22.476563 L 254.886719 22.199219 L 255.128906 21.921875 L 255.101563 21.878906 C 255.085938 21.859375 254.910156 21.683594 254.710938 21.496094 C 254.511719 21.308594 254.339844 21.148438 254.332031 21.140625 C 254.328125 21.132813 254.582031 20.867188 254.902344 20.558594 C 255.605469 19.875 255.71875 20.039063 254.011719 19.285156 C 253.226563 18.9375 252.578125 18.644531 252.570313 18.632813 C 252.558594 18.617188 253.90625 16.46875 253.945313 16.449219 C 253.957031 16.445313 255.160156 16.371094 256.613281 16.292969 L 259.261719 16.144531 L 259.707031 15.882813 C 259.953125 15.738281 261.34375 14.9375 262.796875 14.101563 C 264.25 13.265625 265.429688 12.582031 265.421875 12.578125 C 265.398438 12.574219 262.222656 13.890625 261.625 14.15625 L 261.367188 14.269531 L 261.089844 14.003906 C 260.9375 13.859375 260.710938 13.640625 260.585938 13.519531 C 260.464844 13.402344 260.238281 13.1875 260.089844 13.046875 C 259.941406 12.90625 259.636719 12.613281 259.414063 12.398438 C 259.191406 12.183594 258.582031 11.601563 258.058594 11.105469 C 256.542969 9.65625 253.378906 6.628906 253.242188 6.492188 L 253.121094 6.363281 L 252.921875 6.417969 C 252.816406 6.445313 252.632813 6.476563 252.519531 6.488281 L 252.3125 6.503906 L 252.253906 6.445313 L 252.195313 6.382813 L 252.300781 6.230469 C 252.628906 5.746094 254.558594 4.386719 256.203125 3.476563 C 259.785156 1.496094 260.886719 1.679688 257.9375 3.765625 C 257.46875 4.09375 257.054688 4.394531 257.015625 4.433594 L 256.949219 4.5 L 257.074219 4.441406 C 257.140625 4.410156 257.539063 4.230469 257.957031 4.042969 L 258.71875 3.699219 L 259.148438 3.839844 C 259.382813 3.917969 260.140625 4.148438 260.835938 4.351563 C 261.527344 4.550781 263.796875 5.222656 265.875 5.84375 C 267.953125 6.460938 269.851563 7.019531 270.09375 7.085938 L 270.535156 7.203125 L 270.5 7.277344 C 270.480469 7.3125 269.644531 7.933594 268.640625 8.65625 C 267.636719 9.378906 266.765625 10.007813 266.710938 10.054688 C 266.613281 10.132813 267.195313 9.875 267.734375 9.597656 C 267.863281 9.53125 268.449219 9.246094 269.039063 8.960938 C 269.984375 8.503906 270.90625 8.054688 272.261719 7.398438 C 272.476563 7.292969 272.671875 7.210938 272.695313 7.21875 C 272.71875 7.222656 273.25 7.152344 273.875 7.058594 C 274.496094 6.960938 275.246094 6.851563 275.539063 6.808594 L 276.070313 6.730469 L 277.6875 6.085938 C 278.578125 5.734375 279.515625 5.363281 279.769531 5.261719 L 280.230469 5.082031 L 280.523438 5.261719 C 280.917969 5.507813 280.945313 5.464844 279.984375 6.207031 C 279.511719 6.570313 278.683594 7.207031 278.148438 7.621094 C 277.609375 8.035156 277.199219 8.371094 277.230469 8.367188 C 277.265625 8.367188 278.351563 7.78125 279.644531 7.066406 C 282.902344 5.269531 282.742188 5.351563 283.902344 4.890625 C 286.753906 3.765625 290.023438 2.714844 291.710938 2.617188 L 292.347656 2.578125 C 292.566406 2.589844 292.710938 2.597656 292.90625 2.648438 C 292.835938 2.886719 292.777344 3.007813 292.628906 3.246094 L 292.222656 3.804688 L 291.488281 4.628906 C 289.871094 6.429688 286.460938 9.429688 285.039063 10.296875 C 284.773438 10.460938 283.566406 11.191406 282.359375 11.921875 C 281.148438 12.652344 280.144531 13.273438 280.125 13.300781 C 280.097656 13.347656 280.914063 13.019531 283.410156 11.984375 C 283.914063 11.777344 284.34375 11.605469 284.363281 11.605469 C 284.386719 11.601563 284.414063 11.769531 284.425781 11.980469 L 284.445313 12.359375 L 283.609375 13.023438 C 283.148438 13.386719 282.355469 14.015625 281.84375 14.421875 L 280.914063 15.160156 L 279.941406 16.390625 C 278.730469 17.917969 278.734375 17.914063 278.285156 18.210938 C 277.957031 18.425781 277.699219 18.601563 277.183594 18.960938 C 277.101563 19.019531 276.953125 19.117188 276.851563 19.183594 C 276.75 19.25 275.964844 19.78125 275.109375 20.363281 C 274.253906 20.941406 273.539063 21.425781 273.519531 21.4375 C 273.503906 21.449219 273.433594 21.496094 273.375 21.539063 L 273.269531 21.625 L 273.589844 21.488281 C 273.929688 21.339844 277.375 19.792969 277.570313 19.699219 C 277.761719 19.605469 277.90625 18.953125 275.644531 28.410156 C 275.253906 30.039063 274.917969 31.441406 274.894531 31.535156 L 274.847656 31.699219 L 274.171875 32.191406 C 273.796875 32.460938 273.457031 32.710938 273.414063 32.746094 L 273.332031 32.808594 L 273.460938 32.757813 C 273.53125 32.730469 273.90625 32.5625 274.296875 32.382813 C 275.636719 31.765625 276.308594 31.535156 276.570313 31.609375 L 276.679688 31.636719 L 276.640625 31.777344 L 276.605469 31.921875 L 276.304688 32.210938 C 274.980469 33.5 270.058594 36.152344 269.34375 35.960938 L 269.222656 35.929688 Z M 269.292969 35.753906 "
     id="path16"
     style="fill:#000000;fill-opacity:1" />
  <path
     fill-rule="nonzero"
     fill="rgb(11.399841%, 11.399841%, 10.598755%)"
     fill-opacity="1"
     d="M 197.226563 68.753906 C 197.65625 68.621094 198.058594 68.289063 198.261719 67.886719 C 198.410156 67.597656 198.4375 67.484375 198.433594 67.109375 C 198.433594 66.582031 198.300781 66.25 197.945313 65.894531 C 197.589844 65.539063 197.257813 65.40625 196.734375 65.40625 C 196.40625 65.40625 196.226563 65.441406 195.996094 65.542969 C 195.238281 65.882813 194.839844 66.777344 195.085938 67.59375 C 195.363281 68.511719 196.3125 69.027344 197.226563 68.753906 "
     id="path18"
     style="fill:#ffffff;fill-opacity:1" />
  <path
     fill="none"
     stroke-width="0.057"
     stroke-linecap="butt"
     stroke-linejoin="miter"
     stroke="rgb(0%, 0%, 0%)"
     stroke-opacity="1"
     stroke-miterlimit="4"
     d="M -0.0001375 0.00069375 C 0.42955 0.133506 0.831894 0.465538 1.035019 0.867881 C 1.183456 1.156944 1.2108 1.270225 1.206894 1.645225 C 1.206894 2.172569 1.074081 2.5046 0.718613 2.860069 C 0.363144 3.215538 0.0311125 3.34835 -0.492325 3.34835 C -0.82045 3.34835 -1.000137 3.313194 -1.230606 3.211631 C -1.988419 2.871788 -2.386856 1.977256 -2.140762 1.16085 C -1.863419 0.242881 -0.9142 -0.272744 -0.0001375 0.00069375 Z M -0.0001375 0.00069375 "
     transform="matrix(1, 0, 0, -1, 197.2267, 68.7546)"
     id="path20" />
  <path
     fill-rule="nonzero"
     fill="rgb(100%, 100%, 100%)"
     fill-opacity="1"
     d="M 195.246094 87.175781 C 190.230469 86.734375 185.929688 84.761719 182.496094 81.328125 C 179.101563 77.933594 177.09375 73.605469 176.671875 68.777344 C 176.589844 67.847656 176.636719 65.511719 176.75 64.648438 C 177.363281 60.09375 179.3125 56.117188 182.496094 52.9375 C 185.539063 49.890625 189.433594 47.914063 193.632813 47.28125 C 195.9375 46.933594 198.367188 46.988281 200.613281 47.433594 C 204.488281 48.199219 208.066406 50.117188 210.886719 52.9375 C 213.707031 55.753906 215.625 59.339844 216.390625 63.207031 C 216.675781 64.640625 216.738281 65.371094 216.742188 67.132813 C 216.742188 68.890625 216.679688 69.59375 216.390625 71.054688 C 215.363281 76.265625 212.230469 80.921875 207.761719 83.878906 C 205.136719 85.617188 202.425781 86.625 199.171875 87.070313 C 198.535156 87.15625 195.851563 87.230469 195.246094 87.175781 M 198.710938 85.96875 C 201.832031 85.644531 204.902344 84.511719 207.421875 82.75 C 208.472656 82.015625 209.175781 81.425781 210.109375 80.492188 C 212.03125 78.570313 213.386719 76.492188 214.367188 73.96875 C 215.644531 70.683594 216.136719 66.898438 215.292969 63.496094 C 214.15625 58.921875 211.609375 54.480469 207.597656 51.628906 C 205.164063 49.902344 202.230469 48.753906 199.230469 48.351563 C 198.171875 48.207031 198.113281 48.203125 196.746094 48.203125 C 193.800781 48.195313 191.207031 48.765625 188.582031 49.992188 C 185.785156 51.300781 183.085938 53.5625 181.25 56.140625 C 180.734375 56.867188 180.6875 56.941406 180.316406 57.582031 C 178.972656 59.902344 178.144531 62.417969 177.851563 65.074219 C 177.738281 66.070313 177.722656 67.980469 177.820313 68.976563 C 177.976563 70.632813 178.410156 72.429688 179.042969 74.046875 C 181.386719 80.015625 186.621094 84.421875 192.910156 85.714844 C 193.257813 85.785156 193.585938 85.851563 193.632813 85.855469 C 193.679688 85.863281 193.875 85.886719 194.066406 85.910156 C 194.253906 85.933594 194.449219 85.964844 194.496094 85.980469 C 194.546875 85.996094 195.011719 86.023438 195.535156 86.039063 C 196.058594 86.058594 196.496094 86.078125 196.503906 86.085938 C 196.542969 86.121094 198.003906 86.042969 198.710938 85.96875 "
     id="path22"
     style="fill:#000000;fill-opacity:1" />
  <path
     fill-rule="nonzero"
     fill="rgb(11.399841%, 80.39856%, 99.598694%)"
     fill-opacity="1"
     d="M 225.722656 27.472656 C 208.597656 33.160156 193.882813 40.929688 163.800781 62.640625 C 142.472656 78.035156 137.820313 81.316406 129.210938 87.054688 C 69.832031 126.632813 6.128906 143.925781 5.0625 120.757813 C 4.453125 107.574219 33.203125 84.644531 40.082031 92.820313 C 42.457031 95.644531 44.191406 94.304688 42.402344 91.023438 C 35.617188 78.570313 -1.542969 108.765625 2.15625 123.722656 C 7.644531 145.914063 70.847656 128.40625 130.535156 88.160156 C 137.496094 83.464844 145.589844 77.6875 170.050781 59.957031 C 198.773438 39.128906 219.503906 28.65625 236.804688 26.226563 C 244.734375 25.113281 248.714844 25.628906 251.949219 25.054688 C 254.910156 24.378906 255.179688 24.046875 252.722656 24.734375 C 248.914063 25.496094 239.117188 24.425781 225.722656 27.472656 M 109.066406 108.953125 C 125.039063 99.03125 138.972656 89.03125 155.929688 75.320313 C 176.234375 60.261719 184.617188 53.671875 158.441406 71.933594 C 134.140625 91.722656 124.285156 98.539063 100.796875 111.800781 C 71.703125 128.222656 47.007813 138.6875 28.664063 142.363281 C 21.242188 143.847656 18.585938 145.355469 23.472656 145.308594 C 36.941406 145.179688 80.59375 126.640625 109.066406 108.953125 M 95.304688 100.765625 C 99.773438 97.648438 99.785156 97.34375 95.332031 100.160156 C 78.632813 110.707031 45.308594 122.492188 34.210938 121.777344 C 21.253906 120.941406 17.898438 113.167969 27.699219 106.683594 C 30.929688 104.542969 31.441406 102.625 28.417969 103.980469 C 14.742188 110.121094 17.105469 121.757813 32.328125 123.253906 C 44.449219 124.441406 79.113281 112.066406 95.304688 100.765625 "
     id="path24" />
  <path
     fill-rule="nonzero"
     fill="rgb(100%, 100%, 100%)"
     fill-opacity="1"
     d="M 168.78125 83.507813 L 166.671875 81.171875 L 166.636719 77.136719 C 166.617188 74.914063 166.582031 67.664063 166.558594 61.019531 L 166.519531 48.941406 L 166.695313 48.980469 C 166.789063 49 167.070313 49.074219 167.316406 49.136719 C 167.5625 49.203125 167.988281 49.359375 168.257813 49.488281 C 168.53125 49.617188 168.957031 49.859375 169.203125 50.03125 C 169.449219 50.199219 169.875 50.574219 170.152344 50.859375 C 170.425781 51.144531 170.792969 51.609375 170.964844 51.886719 C 171.132813 52.164063 171.363281 52.59375 171.472656 52.84375 L 171.667969 53.300781 L 171.679688 69.574219 L 171.695313 85.847656 L 170.882813 85.847656 L 168.777344 83.507813 Z M 148.65625 85.515625 C 148.441406 85.46875 148.089844 85.375 147.878906 85.304688 C 147.664063 85.234375 147.269531 85.0625 147.007813 84.929688 C 146.742188 84.792969 146.320313 84.527344 146.070313 84.335938 C 145.816406 84.144531 145.472656 83.839844 145.300781 83.652344 C 145.132813 83.46875 144.871094 83.144531 144.722656 82.9375 C 144.578125 82.730469 144.335938 82.308594 144.191406 82 C 144.042969 81.691406 143.863281 81.238281 143.785156 80.988281 L 143.648438 80.539063 L 143.628906 64.5625 L 143.613281 48.582031 L 144 48.601563 L 144.390625 48.617188 L 153.9375 59.269531 C 159.1875 65.125 163.523438 69.972656 163.570313 70.042969 C 163.640625 70.148438 163.652344 70.761719 163.640625 73.984375 L 163.625 77.800781 L 156.425781 69.828125 C 152.464844 65.445313 149.21875 61.867188 149.207031 61.878906 C 149.195313 61.890625 149.214844 62.574219 149.25 63.40625 C 149.292969 64.34375 149.316406 68.8125 149.316406 75.261719 L 149.316406 85.609375 L 149.179688 85.601563 C 149.105469 85.601563 148.871094 85.558594 148.65625 85.515625 "
     id="path26"
     style="fill:#000000;fill-opacity:1" />
  <path
     fill-rule="nonzero"
     fill="rgb(100%, 100%, 100%)"
     fill-opacity="1"
     d="M 133.085938 83.839844 C 132.617188 82.757813 131.910156 81.144531 131.523438 80.253906 L 130.816406 78.632813 L 113.75 78.632813 L 112.261719 82.054688 C 111.441406 83.933594 110.761719 85.496094 110.75 85.527344 C 110.742188 85.554688 109.964844 84.234375 109.027344 82.59375 C 108.085938 80.949219 107.3125 79.574219 107.300781 79.539063 C 107.292969 79.503906 110.605469 72.535156 114.660156 64.054688 L 122.039063 48.632813 L 122.328125 48.617188 L 122.621094 48.601563 L 130.054688 64.058594 C 134.144531 72.558594 137.488281 79.546875 137.484375 79.585938 C 137.484375 79.625 136.695313 81.03125 135.730469 82.714844 C 134.769531 84.394531 133.972656 85.78125 133.960938 85.789063 C 133.953125 85.800781 133.558594 84.925781 133.085938 83.84375 Z M 128.527344 73.421875 C 128.527344 73.40625 127.675781 71.484375 126.632813 69.144531 C 125.585938 66.808594 124.210938 63.667969 123.574219 62.171875 C 122.9375 60.675781 122.398438 59.433594 122.382813 59.417969 C 122.363281 59.398438 122.339844 59.394531 122.328125 59.40625 C 122.316406 59.421875 121.816406 60.566406 121.210938 61.953125 C 120.601563 63.339844 119.21875 66.445313 118.132813 68.851563 C 117.042969 71.261719 116.140625 73.28125 116.125 73.335938 C 116.097656 73.4375 116.417969 73.441406 122.3125 73.441406 C 125.730469 73.441406 128.527344 73.429688 128.527344 73.421875 "
     id="path28"
     style="fill:#000000;fill-opacity:1" />
  <path
     fill-rule="nonzero"
     fill="rgb(100%, 100%, 100%)"
     fill-opacity="1"
     d="M 94.441406 70.578125 C 96.730469 69.601563 98.457031 68.210938 99.613281 66.40625 C 100.777344 64.605469 101.363281 62.460938 101.363281 59.96875 C 101.363281 55.992188 99.976563 53.117188 97.207031 51.34375 C 94.445313 49.574219 90.929688 48.6875 86.660156 48.6875 L 85.957031 48.6875 L 85.957031 53.390625 L 87.113281 53.390625 C 93.007813 53.390625 95.957031 55.601563 95.957031 60.015625 C 95.957031 62.007813 95.339844 63.71875 94.113281 65.15625 C 92.882813 66.585938 90.617188 67.296875 87.316406 67.296875 L 85.957031 67.296875 L 85.957031 71.886719 C 86.960938 71.875 88.066406 71.847656 89.285156 71.796875 L 96.769531 85.84375 L 103.285156 85.84375 Z M 94.441406 70.578125 "
     id="path30"
     style="fill:#000000;fill-opacity:1" />
  <path
     fill-rule="nonzero"
     fill="rgb(100%, 100%, 100%)"
     fill-opacity="1"
     d="M 81.847656 48.6875 C 80.015625 49.082031 78.574219 50.539063 78.207031 52.382813 L 78.207031 85.84375 L 78.316406 85.84375 L 78.316406 85.707031 C 80.925781 85.707031 83.046875 83.589844 83.046875 80.976563 L 83.140625 80.976563 L 83.140625 48.6875 Z M 81.847656 48.6875 "
     id="path32"
     style="fill:#000000;fill-opacity:1" />
  <path
     fill-rule="nonzero"
     fill="rgb(100%, 100%, 100%)"
     fill-opacity="1"
     d="M 225.363281 67.140625 C 225.960938 67.539063 226.996094 68.109375 228.460938 68.847656 L 231.449219 64.054688 C 230.574219 63.550781 229.820313 63.097656 229.222656 62.703125 C 228.292969 62.089844 227.527344 61.371094 226.925781 60.546875 C 226.320313 59.726563 226.019531 58.789063 226.019531 57.734375 C 226.019531 56.257813 226.496094 55.136719 227.457031 54.375 C 228.414063 53.617188 229.738281 53.234375 231.425781 53.234375 C 232.730469 53.234375 233.960938 53.476563 235.121094 53.960938 C 237.242188 54.054688 239.3125 52.96875 240.40625 51.039063 C 238.007813 49.113281 235.097656 48.140625 231.675781 48.140625 C 228.445313 48.140625 225.769531 48.992188 223.644531 50.6875 C 221.519531 52.386719 220.457031 54.839844 220.457031 58.046875 C 220.457031 61.921875 222.089844 64.953125 225.363281 67.140625 "
     id="path34"
     style="fill:#000000;fill-opacity:1" />
  <path
     fill-rule="nonzero"
     fill="rgb(100%, 100%, 100%)"
     fill-opacity="1"
     d="M 241.128906 71.796875 C 240.523438 70.578125 239.730469 69.53125 238.753906 68.65625 C 238.042969 67.980469 237.285156 67.402344 236.472656 66.921875 C 235.878906 66.5625 235.085938 66.101563 234.105469 65.546875 L 231.183594 70.242188 C 231.921875 70.640625 232.554688 71 233.050781 71.3125 C 233.925781 71.867188 234.664063 72.5625 235.269531 73.40625 C 235.871094 74.25 236.175781 75.246094 236.175781 76.390625 C 236.175781 77.871094 235.613281 79.03125 234.488281 79.875 C 233.363281 80.71875 231.902344 81.140625 230.113281 81.140625 C 228.726563 81.140625 227.285156 80.796875 225.785156 80.109375 C 225.640625 80.042969 225.515625 79.976563 225.375 79.910156 C 223.144531 79.726563 220.933594 80.863281 219.820313 82.921875 C 220.699219 83.792969 222.117188 84.578125 224.097656 85.28125 C 226.085938 85.988281 228.089844 86.34375 230.113281 86.34375 C 232.402344 86.34375 234.449219 85.941406 236.253906 85.140625 C 238.054688 84.328125 239.472656 83.132813 240.503906 81.546875 C 241.535156 79.964844 242.050781 78.042969 242.050781 75.78125 C 242.050781 74.335938 241.742188 73.007813 241.128906 71.796875 "
     id="path36"
     style="fill:#000000;fill-opacity:1" />
</svg>
