<?xml version="1.0" encoding="utf-8"?>
<!-- Generator: Adobe Illustrator 28.0.0, SVG Export Plug-In . SVG Version: 6.00 Build 0)  -->
<svg version="1.1" xmlns="http://www.w3.org/2000/svg" xmlns:xlink="http://www.w3.org/1999/xlink" x="0px" y="0px"
	 viewBox="0 0 294.8 147.4" style="enable-background:new 0 0 294.8 147.4;" xml:space="preserve">
<style type="text/css">
	.st0{fill:#FFFFFF;}
	.st1{fill:none;}
	.st2{fill:#1DCDFE;}
	.st3{fill:none;stroke:#000000;stroke-width:0.198;}
	.st4{stroke:#000000;stroke-width:0.315;stroke-linecap:round;stroke-linejoin:bevel;}
	.st5{fill:none;stroke:#000000;stroke-width:5.700000e-02;}
</style>
<g id="Livello_2">
	<rect class="st0" width="294.8" height="147.4"/>
</g>
<g id="svg38" xmlns:svg="http://www.w3.org/2000/svg" xmlns:sodipodi="http://sodipodi.sourceforge.net/DTD/sodipodi-0.dtd" xmlns:inkscape="http://www.inkscape.org/namespaces/inkscape">
	
		<sodipodi:namedview  bordercolor="#666666" borderopacity="1.0" id="namedview40" inkscape:current-layer="svg38" inkscape:cx="210.68431" inkscape:cy="74.385371" inkscape:deskcolor="#d1d1d1" inkscape:document-units="pt" inkscape:pagecheckerboard="0" inkscape:pageopacity="0.0" inkscape:showpageshadow="2" inkscape:window-height="1017" inkscape:window-maximized="1" inkscape:window-width="1920" inkscape:window-x="-8" inkscape:window-y="32" inkscape:zoom="2.2450651" pagecolor="#ffffff" showgrid="false">
		</sodipodi:namedview>
	<path id="path2" class="st1" d="M0,147.4h294.8V0H0V147.4z"/>
	<path id="path4" d="M55.9,81c-1.8-0.3-3.2-1.1-4.1-2.4C50.6,76.8,50,74,50,70.1V54.4c-0.3-3-2.7-5.3-5.7-5.6V70
		c0,5.3,1,9.4,3.1,12.2c1.8,2.4,4.6,3.8,8.4,4.1V81z"/>
	<path id="path6" d="M65.1,55.1L65.1,55.1l-0.1,15c0,4-0.6,6.9-1.8,8.5C62.4,79.9,61,80.7,59,81v5.3c3.7-0.3,6.5-1.7,8.4-4.2
		c2.2-2.8,3.3-6.9,3.3-12.2V48.8C67.6,49.2,65.1,51.9,65.1,55.1"/>
	<path id="path8" class="st2" d="M195.3,87.2c-5-0.4-9.3-2.4-12.8-5.8c-3.4-3.4-5.4-7.7-5.8-12.6c-0.1-0.9,0-3.3,0.1-4.1
		c0.6-4.6,2.6-8.5,5.7-11.7c3-3,6.9-5,11.1-5.7c2.3-0.3,4.7-0.3,7,0.1c3.9,0.8,7.4,2.7,10.3,5.5s4.7,6.4,5.5,10.3
		c0.3,1.4,0.3,2.2,0.3,3.9c0,1.8-0.1,2.5-0.3,3.9c-1,5.2-4.2,9.9-8.6,12.8c-2.6,1.7-5.3,2.7-8.6,3.2
		C198.6,87.1,195.9,87.2,195.3,87.2 M198.8,86c3.1-0.3,6.2-1.5,8.7-3.2c1.1-0.7,1.8-1.3,2.7-2.3c1.9-1.9,3.3-4,4.3-6.5
		c1.3-3.3,1.6-7,0.9-10.5c-0.9-4.8-3.7-9-7.7-11.9c-2.4-1.7-5.4-2.9-8.4-3.3c-1.1-0.1-1.1-0.1-2.5-0.1c-2.9,0-5.5,0.6-8.2,1.8
		c-2.8,1.3-5.5,3.6-7.3,6.1c-0.5,0.7-0.6,0.8-0.9,1.4c-1.3,2.3-2.2,4.8-2.5,7.5c-0.1,1-0.1,2.9,0,3.9c0.2,1.7,0.6,3.5,1.2,5.1
		c2.3,6,7.6,10.4,13.9,11.7c0.3,0.1,0.7,0.1,0.7,0.1c0,0,0.2,0,0.4,0.1c0.2,0,0.4,0.1,0.4,0.1s0.5,0,1,0.1s1,0,1,0
		C196.6,86.1,198.1,86,198.8,86 M195.1,85.3c0.2-0.5,0.2-0.8,0.2-1.6c0-0.7,0-0.9-0.3-2.1c-0.5-2.6-0.5-2.7,0.2-4.6
		c0.4-1.3,0.6-2,0.8-2.8c0.1-0.7,0.1-0.6-0.3-0.7l-0.4-0.1l-0.2,0.6c-0.3,0.8-0.7,1.5-1.2,2.4c-0.5,0.9-0.6,1.1-0.6,2
		c0,0.8,0.1,1.4,0.6,4c0.2,1.1,0.2,1.3,0,1.7c-0.1,0.3-0.4,0.4-0.6,0.5c-0.2,0-1.8-0.1-2.7-0.2l-0.2,0l0.1-0.2
		c0.3-0.4,0.6-1.1,0.7-1.5c0-0.2,0.1-1.2,0.2-2c0.2-2.5,0.2-2.7,1.3-4.3c1-1.5,1.9-3.1,1.8-3.2c0,0-0.2-0.1-0.4-0.2
		c-0.3-0.1-0.3-0.1-0.4,0c-0.2,0.4-1.1,1.4-1.8,2.2c-1.4,1.4-1.4,1.5-1.7,4.6c-0.1,0.7-0.1,1.5-0.2,1.9c0,0.7-0.1,1-0.3,1.2
		c-0.4,0.5-0.6,0.5-2-0.1c-0.6-0.2-1.2-0.5-1.3-0.5c-0.1,0-0.2-0.1-0.2-0.1s0.2-0.2,0.4-0.4c0.7-0.7,1-1.3,1.5-2.9
		c0.4-1.1,0.7-2,1-2.4c0.3-0.4,0.7-0.8,1.5-1.6c0.4-0.4,1-0.9,1.2-1.1c0.5-0.5,1.3-1.4,1.3-1.4c0,0-0.1-0.1-0.3-0.2l-0.3-0.2
		l-0.5,0.4c-0.6,0.5-1.4,1-2.1,1.4c-1,0.6-1.4,0.9-1.8,1.8c-0.2,0.4-1,2.6-1.4,3.6c-0.3,0.9-0.4,1-0.6,1.3c-0.3,0.3-0.6,0.4-0.9,0.3
		c-0.2-0.1-2.4-1.6-2.4-1.7c0,0,0,0,0.1,0c0.2,0,1.1-0.7,1.4-1c0.2-0.2,0.6-0.7,0.9-1.2c1.8-2.7,1.8-2.6,4-3.8
		c0.7-0.4,1.6-0.9,2-1.1c0.4-0.3,0.7-0.5,0.7-0.5s-0.1-0.2-0.2-0.3s-0.2-0.3-0.2-0.3c0,0-0.2,0.1-0.5,0.2c-0.7,0.3-1.5,0.6-2.6,0.9
		c-1,0.3-1.4,0.4-1.8,0.9c-0.4,0.4-1.6,2-2.7,3.7c-0.4,0.6-0.6,0.8-0.9,0.9c-0.5,0.2-0.8,0.1-1.2-0.4c-0.6-0.8-1.5-1.9-1.5-1.9
		c0,0,0.1-0.1,0.3-0.1c0.9-0.2,1.4-0.5,2.8-1.8c1.1-1,1.8-1.5,2.2-1.7c0.4-0.2,1.1-0.4,2-0.5c0.9-0.2,1.8-0.4,2.7-0.7
		c0.4-0.1,0.8-0.3,0.8-0.3c0,0-0.3-0.7-0.3-0.7c0,0-0.2,0-0.5,0.1c-0.7,0.1-1.7,0.2-2.7,0.2c-1.1,0-1.4,0.1-2,0.4
		c-0.4,0.2-1.4,1-3,2.4c-1.2,1-1.2,1-1.6,1.1c-0.3,0.1-0.7,0-0.9-0.2c-0.1-0.1-0.4-0.7-0.7-1.4l-0.6-1.3l0.7,0c0.9,0,1.3-0.2,3-1
		c2.4-1.2,2.4-1.2,4.6-1c1.1,0.1,1.8,0.1,2.4,0.1c1.2-0.1,1.1,0,1.1-0.3c0-0.5-0.1-0.5-0.3-0.6c-0.1,0-0.5-0.1-0.9-0.1
		c-0.7-0.1-1.4-0.2-2.4-0.5c-0.5-0.1-0.6-0.2-1.2-0.1c-0.8,0-1.3,0.2-4.1,1.6c-1.2,0.6-1.3,0.6-1.7,0.6c-0.3,0-0.4,0-0.6-0.1
		c-0.1-0.1-0.3-0.2-0.3-0.3c-0.1-0.2-0.5-2.9-0.5-2.9c0,0,0.1,0,0.2,0.1c0.8,0.3,1.6,0.3,3.6-0.1c2.6-0.5,2.7-0.5,4.6,0.2
		c1.2,0.4,2.6,0.8,3.2,0.9l0.3,0l0.1-0.4l0.1-0.4l-0.5-0.2c-0.8-0.3-1.6-0.7-2.4-1.2c-0.9-0.6-1.2-0.6-1.9-0.7c-0.7,0-1.1,0-3.8,0.5
		c-1.1,0.2-1.6,0.3-1.8,0.2c-0.5-0.1-0.8-0.4-0.9-0.7c0-0.2,0.1-1.9,0.2-2.7l0-0.2l0.2,0.1c0.4,0.3,1.1,0.6,1.5,0.7
		c0.2,0,1.2,0.1,2,0.2c2.5,0.2,2.7,0.2,4.3,1.3c1.5,1,3.1,1.9,3.2,1.8c0,0,0.1-0.2,0.2-0.4c0.1-0.3,0.1-0.3,0-0.4
		c-0.4-0.2-1.4-1.1-2.2-1.8c-1.5-1.4-1.4-1.4-5.5-1.7c-1.8-0.1-2-0.2-2.3-0.6c-0.3-0.3-0.2-0.6,0.4-2.1c0.3-0.7,0.5-1.2,0.5-1.3
		c0,0,0.1,0.1,0.3,0.2c0.3,0.4,0.9,0.8,1.4,1c0.2,0.1,1,0.4,1.8,0.7c2.4,0.8,2.5,0.9,3.9,2.5c1,1.2,2.5,2.6,2.6,2.5
		c0,0,0.1-0.2,0.2-0.3l0.2-0.3l-0.4-0.5c-0.5-0.6-1-1.4-1.4-2.1c-0.7-1.2-1.1-1.6-2.5-2.2c-0.2-0.1-0.5-0.2-0.6-0.2
		c-0.1,0-0.6-0.2-1.3-0.5c-2-0.7-2-0.7-2.3-1c-0.4-0.5-0.4-0.9,0-1.5c0.1-0.1,0.4-0.5,0.7-1c0.4-0.5,0.6-0.9,0.7-0.9
		c0,0,0.1,0.1,0.2,0.3c0.2,0.4,0.6,1,1,1.3c0.2,0.2,0.9,0.6,1.6,1.1c2.1,1.4,2.2,1.6,3.1,3.3c0.6,1.2,0.9,1.8,1.4,2.6
		c0.2,0.3,0.4,0.5,0.4,0.5c0,0,0.2-0.1,0.3-0.2s0.3-0.2,0.3-0.2c0,0-0.1-0.2-0.2-0.5c-0.3-0.7-0.6-1.5-0.9-2.5
		c-0.4-1.5-0.6-1.7-2.6-3.2c-0.6-0.4-1.4-1-1.8-1.3c-0.4-0.3-0.8-0.6-0.9-0.7c-0.2-0.2-0.3-0.6-0.3-0.8c0-0.4,0.1-0.5,1.2-1.4
		c0.6-0.5,1.1-0.9,1.1-0.9c0,0,0.1,0.2,0.2,0.4c0.2,0.9,0.5,1.3,1.5,2.5c2,2.3,2.1,2.5,2.4,4.3c0.2,1.2,0.4,1.9,0.7,2.8
		c0.1,0.4,0.3,0.8,0.3,0.8s0.2-0.1,0.4-0.1c0.2-0.1,0.3-0.2,0.3-0.2c0-0.1-0.1-0.4-0.1-0.7c-0.1-0.4-0.1-1.2-0.1-2.1
		c0-1.6-0.1-1.7-0.4-2.4c-0.2-0.3-1-1.4-2.3-2.9c-0.5-0.6-1-1.1-1-1.2c-0.2-0.4-0.2-1,0.1-1.3c0.1-0.1,0.7-0.4,1.4-0.7l1.3-0.6
		l0,0.7c0,0.4,0.1,0.8,0.2,1.1c0.1,0.2,0.5,1.1,0.9,2c1.1,2.3,1.1,2.5,1,4.6c-0.1,1.2-0.1,2.8,0,3.3l0,0.2l0.4,0
		c0.2,0,0.4-0.1,0.4-0.1c0,0,0-0.3,0.1-0.5c0.1-0.9,0.2-1.5,0.6-3c0.1-0.5,0.2-1.2,0-1.7c-0.1-0.5-0.8-2-1.7-3.9
		c-0.4-0.8-0.4-0.8-0.4-1.3c0-0.4,0-0.5,0.2-0.7c0.1-0.1,0.2-0.2,0.3-0.3c0.2-0.1,2.8-0.5,2.8-0.5c0,0,0,0.2-0.1,0.4
		c-0.1,0.2-0.1,0.6-0.1,1c0,0.7,0,0.7,0.4,2.7c0.4,2.2,0.4,2.4-0.2,4.4c-0.4,1.3-0.6,2-0.8,2.8c-0.1,0.7-0.1,0.6,0.3,0.7l0.4,0.1
		l0.2-0.4c0.2-0.7,0.7-1.7,1.2-2.4c0.6-0.9,0.6-1.2,0.7-1.9c0-0.7-0.1-1.7-0.6-4.2c-0.2-1.2-0.2-1.4,0-1.8c0.1-0.3,0.4-0.4,0.6-0.5
		c0.2,0,1.9,0.1,2.7,0.2l0.2,0l-0.1,0.2c-0.3,0.4-0.6,1.1-0.7,1.5c0,0.2-0.1,1.2-0.2,2c-0.2,2.5-0.2,2.7-1.3,4.3
		c-1,1.5-1.9,3-1.8,3.2c0,0,0.2,0.1,0.4,0.2c0.3,0.1,0.3,0.1,0.4,0c0.2-0.4,1.1-1.4,1.8-2.2c1.4-1.4,1.4-1.5,1.7-4.6
		c0.1-0.7,0.1-1.5,0.2-1.9c0-0.7,0.1-1,0.3-1.2c0.4-0.5,0.6-0.5,1.9,0c0.5,0.2,1.1,0.4,1.3,0.5c0.2,0.1,0.3,0.1,0.3,0.1
		s-0.1,0.1-0.3,0.3c-0.3,0.3-0.8,0.9-1,1.3c-0.2,0.4-0.5,1.2-0.9,2.5c-0.5,1.6-0.8,2-2.2,3.2c-0.4,0.4-1,0.9-1.2,1.1
		c-0.5,0.5-1.3,1.4-1.3,1.4c0,0,0.1,0.1,0.3,0.2l0.3,0.2l0.5-0.4c0.6-0.5,1.4-1,2.1-1.4c1.4-0.8,1.6-1,2.5-3.6
		c0.2-0.7,0.5-1.2,0.5-1.3s0.1-0.3,0.2-0.5c0.3-0.9,0.6-1.3,1.1-1.5c0.3-0.1,0.5,0,1.1,0.4c0.3,0.2,0.8,0.6,1.1,0.8
		c0.4,0.3,0.6,0.5,0.6,0.5c0,0-0.1,0.1-0.3,0.2c-0.6,0.3-1.3,0.9-1.8,1.7c-0.1,0.2-0.2,0.3-0.2,0.3c0,0,0,0,0,0.1
		c0,0-0.2,0.4-0.6,0.9c-1.2,1.8-1.3,1.9-3.5,3c-0.7,0.3-1.6,0.8-2,1.1c-0.4,0.3-0.7,0.5-0.7,0.5s0.1,0.2,0.2,0.3s0.2,0.3,0.2,0.3
		c0,0,0.2-0.1,0.5-0.2c0.7-0.3,1.5-0.6,2.5-0.9c1.6-0.4,1.7-0.5,4-3.8c0.1-0.2,0.4-0.5,0.6-0.8c0.5-0.7,0.9-1,1.3-1
		c0.4,0,0.5,0.1,1,0.7c0.9,1.1,1.3,1.6,1.3,1.7c0,0-0.1,0.1-0.3,0.1c-0.4,0.1-1,0.3-1.5,0.6c-0.2,0.1-0.9,0.7-1.5,1.3
		c-1.9,1.7-2.2,1.8-3.9,2.1c-1,0.2-1.9,0.4-2.8,0.7c-0.4,0.1-0.8,0.3-0.8,0.3c0,0,0.3,0.7,0.3,0.7c0,0,0.2,0,0.3,0
		c0.6-0.1,1.9-0.2,2.9-0.2c1.1,0,1.5-0.1,2-0.4c0.4-0.2,1.4-1,2.8-2.2c1.5-1.3,1.5-1.3,2.1-1.3c0.4,0,0.6,0.2,0.8,0.5
		c0.1,0.3,1.1,2.4,1.1,2.4c0,0-0.3,0-0.7,0c-0.9,0-1.2,0.1-3,1c-2.3,1.1-2.6,1.2-4.3,1c-1.1-0.1-3.1-0.1-3.6,0l-0.3,0l0.1,0.4
		c0,0.2,0.1,0.4,0.1,0.4c0,0,0.3,0.1,0.7,0.1c0.9,0.1,1.7,0.3,2.4,0.5c0.5,0.2,0.7,0.2,1.3,0.2c0.7,0,0.7,0,1.2-0.2
		c0.5-0.2,1.9-0.8,3.5-1.6c0.8-0.4,0.9-0.4,1.2-0.4c0.4,0,0.8,0.2,0.9,0.5c0.1,0.2,0.5,2.9,0.5,2.9c0,0-0.1,0-0.2-0.1
		c-0.8-0.3-1.7-0.3-3.6,0.1c-2.5,0.5-2.7,0.5-4.6-0.2c-1.2-0.4-2.6-0.8-3.2-0.9l-0.3,0l-0.1,0.4l-0.1,0.4l0.5,0.2
		c0.7,0.3,1.6,0.7,2.3,1.1c1,0.6,1.2,0.7,1.9,0.7c0.7,0,1.1,0,3.8-0.5c1.1-0.2,1.6-0.3,1.8-0.2c0.5,0.1,0.8,0.4,0.9,0.7
		c0,0.2-0.1,1.9-0.2,2.7l0,0.2l-0.2-0.1c-0.4-0.3-1.1-0.6-1.5-0.7c-0.2,0-1.2-0.1-2.1-0.2c-2.5-0.2-2.7-0.2-4.3-1.3
		c-1.5-1-3.1-1.9-3.2-1.8c0,0-0.1,0.2-0.2,0.4c-0.1,0.3-0.1,0.3,0,0.4c0.4,0.2,1.4,1.1,2.2,1.8c1.4,1.4,1.5,1.4,5.4,1.7
		c1.7,0.1,2,0.2,2.3,0.4c0.3,0.2,0.4,0.5,0.4,0.8c0,0.2-0.9,2.7-1,2.8c0,0-0.1-0.1-0.3-0.2c-0.3-0.4-0.9-0.8-1.3-1
		c-0.2-0.1-0.9-0.3-1.5-0.6c-2.2-0.8-2.6-0.9-3.2-1.5c-0.2-0.2-0.6-0.7-1-1.1c-1-1.2-2.5-2.6-2.6-2.5c0,0-0.1,0.2-0.2,0.3l-0.2,0.3
		l0.4,0.5c0.5,0.6,1,1.4,1.4,2.1c0.8,1.4,1.1,1.6,4.3,2.8c2.1,0.8,2.1,0.8,2.4,1c0.3,0.3,0.4,0.6,0.3,0.9c0,0.1-0.3,0.5-0.6,0.9
		c-0.3,0.4-0.6,0.9-0.8,1.1c-0.3,0.4-0.4,0.5-0.4,0.4c0-0.2-0.7-1.1-1-1.4c-0.2-0.2-0.7-0.6-1.2-0.9c-2-1.3-2.4-1.7-2.8-2.2
		c-0.1-0.2-0.5-1-0.9-1.7c-0.4-0.8-0.9-1.7-1.2-2.1c-0.3-0.4-0.5-0.7-0.5-0.7s-0.2,0.1-0.3,0.2s-0.3,0.2-0.3,0.2s0.1,0.2,0.2,0.5
		c0.3,0.7,0.6,1.5,0.9,2.5c0.2,0.9,0.4,1.2,0.7,1.6c0.4,0.5,1.1,1,3.3,2.5c0.6,0.4,1.1,0.8,1.2,0.9c0.2,0.2,0.4,0.6,0.4,0.8
		c0,0.4-0.1,0.5-1.3,1.5c-0.6,0.5-1.1,0.9-1.2,0.9c0,0-0.1-0.1-0.1-0.3c-0.1-0.4-0.3-1-0.6-1.5c-0.1-0.2-0.7-0.9-1.2-1.4
		c-1.7-2-1.9-2.3-2.2-4.1c-0.2-1.2-0.4-1.9-0.7-2.8c-0.1-0.4-0.3-0.8-0.3-0.8c0,0-0.7,0.3-0.7,0.3c0,0,0,0.2,0.1,0.5
		c0.1,0.7,0.2,1.7,0.2,2.7c0,1.1,0.1,1.4,0.4,2c0.2,0.4,1.1,1.5,2.4,3c1,1.2,1,1.2,1.1,1.6c0.1,0.3,0,0.7-0.2,0.9
		c-0.1,0.1-0.7,0.4-1.4,0.7l-1.3,0.6l0-0.7c-0.1-0.9-0.1-1.2-1.1-3.1c-0.9-1.8-0.9-2-1-2.6c-0.1-0.4-0.1-0.7,0-1.9
		c0.1-1.4,0.1-2.8,0-3.3c0-0.2,0-0.2-0.4-0.1c-0.2,0-0.4,0.1-0.4,0.1c0,0-0.1,0.3-0.1,0.5s-0.1,0.7-0.1,1c-0.1,0.5-0.2,0.8-0.5,2
		c-0.1,0.5-0.2,1.2,0,1.7c0.1,0.5,0.5,1.2,1.4,3.2c0.7,1.5,0.8,1.7,0.8,2c0,0.4-0.1,0.7-0.4,0.9c-0.1,0.1-0.5,0.2-1.3,0.3
		C195,85.4,195,85.4,195.1,85.3 M197.2,68.8c0.4-0.1,0.8-0.5,1-0.9c0.1-0.3,0.2-0.4,0.2-0.8c0-0.5-0.1-0.9-0.5-1.2
		c-0.4-0.4-0.7-0.5-1.2-0.5c-0.3,0-0.5,0-0.7,0.1c-0.8,0.3-1.2,1.2-0.9,2.1C195.4,68.5,196.3,69,197.2,68.8"/>
	<path id="path10" class="st3" d="M195.3,87.2c-5-0.4-9.3-2.4-12.8-5.8c-3.4-3.4-5.4-7.7-5.8-12.6c-0.1-0.9,0-3.3,0.1-4.1
		c0.6-4.6,2.6-8.5,5.7-11.7c3-3,6.9-5,11.1-5.7c2.3-0.3,4.7-0.3,7,0.1c3.9,0.8,7.4,2.7,10.3,5.5c2.8,2.8,4.7,6.4,5.5,10.3
		c0.3,1.4,0.3,2.2,0.3,3.9c0,1.8-0.1,2.5-0.3,3.9c-1,5.2-4.2,9.9-8.6,12.8c-2.6,1.7-5.3,2.7-8.6,3.2
		C198.6,87.1,195.9,87.2,195.3,87.2z M198.8,86c3.1-0.3,6.2-1.5,8.7-3.2c1.1-0.7,1.8-1.3,2.7-2.3c1.9-1.9,3.3-4,4.3-6.5
		c1.3-3.3,1.6-7,0.9-10.5c-0.9-4.8-3.7-9-7.7-11.9c-2.4-1.7-5.4-2.9-8.4-3.3c-1.1-0.1-1.1-0.1-2.5-0.1c-2.9,0-5.5,0.6-8.2,1.8
		c-2.8,1.3-5.5,3.6-7.3,6.1c-0.5,0.7-0.6,0.8-0.9,1.4c-1.3,2.3-2.2,4.8-2.5,7.5c-0.1,1-0.1,2.9,0,3.9c0.2,1.7,0.6,3.5,1.2,5.1
		c2.3,6,7.6,10.4,13.9,11.7c0.3,0.1,0.7,0.1,0.7,0.1c0,0,0.2,0,0.4,0.1c0.2,0,0.4,0.1,0.4,0.1s0.5,0,1,0.1s1,0,1,0
		C196.6,86.1,198.1,86,198.8,86z M195.1,85.3c0.2-0.5,0.2-0.8,0.2-1.6c0-0.7,0-0.9-0.3-2.1c-0.5-2.6-0.5-2.7,0.2-4.6
		c0.4-1.3,0.6-2,0.8-2.8c0.1-0.7,0.1-0.6-0.3-0.7l-0.4-0.1l-0.2,0.6c-0.3,0.8-0.7,1.5-1.2,2.4c-0.5,0.9-0.6,1.1-0.6,2
		c0,0.8,0.1,1.4,0.6,4c0.2,1.1,0.2,1.3,0,1.7c-0.1,0.3-0.4,0.4-0.6,0.5c-0.2,0-1.8-0.1-2.7-0.2l-0.2,0l0.1-0.2
		c0.3-0.4,0.6-1.1,0.7-1.5c0-0.2,0.1-1.2,0.2-2c0.2-2.5,0.2-2.7,1.3-4.3c1-1.5,1.9-3.1,1.8-3.2c0,0-0.2-0.1-0.4-0.2
		c-0.3-0.1-0.3-0.1-0.4,0c-0.2,0.4-1.1,1.4-1.8,2.2c-1.4,1.4-1.4,1.5-1.7,4.6c-0.1,0.7-0.1,1.5-0.2,1.9c0,0.7-0.1,1-0.3,1.2
		c-0.4,0.5-0.6,0.5-2-0.1c-0.6-0.2-1.2-0.5-1.3-0.5c-0.1,0-0.2-0.1-0.2-0.1s0.2-0.2,0.4-0.4c0.7-0.7,1-1.3,1.5-2.9
		c0.4-1.1,0.7-2,1-2.4c0.3-0.4,0.7-0.8,1.5-1.6c0.4-0.4,1-0.9,1.2-1.1c0.5-0.5,1.3-1.4,1.3-1.4c0,0-0.1-0.1-0.3-0.2l-0.3-0.2
		l-0.5,0.4c-0.6,0.5-1.4,1-2.1,1.4c-1,0.6-1.4,0.9-1.8,1.8c-0.2,0.4-1,2.6-1.4,3.6c-0.3,0.9-0.4,1-0.6,1.3c-0.3,0.3-0.6,0.4-0.9,0.3
		c-0.2-0.1-2.4-1.6-2.4-1.7c0,0,0,0,0.1,0c0.2,0,1.1-0.7,1.4-1c0.2-0.2,0.6-0.7,0.9-1.2c1.8-2.7,1.8-2.6,4-3.8
		c0.7-0.4,1.6-0.9,2-1.1c0.4-0.3,0.7-0.5,0.7-0.5s-0.1-0.2-0.2-0.3s-0.2-0.3-0.2-0.3c0,0-0.2,0.1-0.5,0.2c-0.7,0.3-1.5,0.6-2.6,0.9
		c-1,0.3-1.4,0.4-1.8,0.9c-0.4,0.4-1.6,2-2.7,3.7c-0.4,0.6-0.6,0.8-0.9,0.9c-0.5,0.2-0.8,0.1-1.2-0.4c-0.6-0.8-1.5-1.9-1.5-1.9
		c0,0,0.1-0.1,0.3-0.1c0.9-0.2,1.4-0.5,2.8-1.8c1.1-1,1.8-1.5,2.2-1.7c0.4-0.2,1.1-0.4,2-0.5c0.9-0.2,1.8-0.4,2.7-0.7
		c0.4-0.1,0.8-0.3,0.8-0.3c0,0-0.3-0.7-0.3-0.7c0,0-0.2,0-0.5,0.1c-0.7,0.1-1.7,0.2-2.7,0.2c-1.1,0-1.4,0.1-2,0.4
		c-0.4,0.2-1.4,1-3,2.4c-1.2,1-1.2,1-1.6,1.1c-0.3,0.1-0.7,0-0.9-0.2c-0.1-0.1-0.4-0.7-0.7-1.4l-0.6-1.3l0.7,0c0.9,0,1.3-0.2,3-1
		c2.4-1.2,2.4-1.2,4.6-1c1.1,0.1,1.8,0.1,2.4,0.1c1.2-0.1,1.1,0,1.1-0.3c0-0.5-0.1-0.5-0.3-0.6c-0.1,0-0.5-0.1-0.9-0.1
		c-0.7-0.1-1.4-0.2-2.4-0.5c-0.5-0.1-0.6-0.2-1.2-0.1c-0.8,0-1.3,0.2-4.1,1.6c-1.2,0.6-1.3,0.6-1.7,0.6c-0.3,0-0.4,0-0.6-0.1
		c-0.1-0.1-0.3-0.2-0.3-0.3c-0.1-0.2-0.5-2.9-0.5-2.9c0,0,0.1,0,0.2,0.1c0.8,0.3,1.6,0.3,3.6-0.1c2.6-0.5,2.7-0.5,4.6,0.2
		c1.2,0.4,2.6,0.8,3.2,0.9l0.3,0l0.1-0.4l0.1-0.4l-0.5-0.2c-0.8-0.3-1.6-0.7-2.4-1.2c-0.9-0.6-1.2-0.6-1.9-0.7c-0.7,0-1.1,0-3.8,0.5
		c-1.1,0.2-1.6,0.3-1.8,0.2c-0.5-0.1-0.8-0.4-0.9-0.7c0-0.2,0.1-1.9,0.2-2.7l0-0.2l0.2,0.1c0.4,0.3,1.1,0.6,1.5,0.7
		c0.2,0,1.2,0.1,2,0.2c2.5,0.2,2.7,0.2,4.3,1.3c1.5,1,3.1,1.9,3.2,1.8c0,0,0.1-0.2,0.2-0.4c0.1-0.3,0.1-0.3,0-0.4
		c-0.4-0.2-1.4-1.1-2.2-1.8c-1.5-1.4-1.4-1.4-5.5-1.7c-1.8-0.1-2-0.2-2.3-0.6c-0.3-0.3-0.2-0.6,0.4-2.1c0.3-0.7,0.5-1.2,0.5-1.3
		c0,0,0.1,0.1,0.3,0.2c0.3,0.4,0.9,0.8,1.4,1c0.2,0.1,1,0.4,1.8,0.7c2.4,0.8,2.5,0.9,3.9,2.5c1,1.2,2.5,2.6,2.6,2.5
		c0,0,0.1-0.2,0.2-0.3l0.2-0.3l-0.4-0.5c-0.5-0.6-1-1.4-1.4-2.1c-0.7-1.2-1.1-1.6-2.5-2.2c-0.2-0.1-0.5-0.2-0.6-0.2
		c-0.1,0-0.6-0.2-1.3-0.5c-2-0.7-2-0.7-2.3-1c-0.4-0.5-0.4-0.9,0-1.5c0.1-0.1,0.4-0.5,0.7-1c0.4-0.5,0.6-0.9,0.7-0.9
		c0,0,0.1,0.1,0.2,0.3c0.2,0.4,0.6,1,1,1.3c0.2,0.2,0.9,0.6,1.6,1.1c2.1,1.4,2.2,1.6,3.1,3.3c0.6,1.2,0.9,1.8,1.4,2.6
		c0.2,0.3,0.4,0.5,0.4,0.5c0,0,0.2-0.1,0.3-0.2s0.3-0.2,0.3-0.2c0,0-0.1-0.2-0.2-0.5c-0.3-0.7-0.6-1.5-0.9-2.5
		c-0.4-1.5-0.6-1.7-2.6-3.2c-0.6-0.4-1.4-1-1.8-1.3c-0.4-0.3-0.8-0.6-0.9-0.7c-0.2-0.2-0.3-0.6-0.3-0.8c0-0.4,0.1-0.5,1.2-1.4
		c0.6-0.5,1.1-0.9,1.1-0.9c0,0,0.1,0.2,0.2,0.4c0.2,0.9,0.5,1.3,1.5,2.5c2,2.3,2.1,2.5,2.4,4.3c0.2,1.2,0.4,1.9,0.7,2.8
		c0.1,0.4,0.3,0.8,0.3,0.8s0.2-0.1,0.4-0.1c0.2-0.1,0.3-0.2,0.3-0.2c0-0.1-0.1-0.4-0.1-0.7c-0.1-0.4-0.1-1.2-0.1-2.1
		c0-1.6-0.1-1.7-0.4-2.4c-0.2-0.3-1-1.4-2.3-2.9c-0.5-0.6-1-1.1-1-1.2c-0.2-0.4-0.2-1,0.1-1.3c0.1-0.1,0.7-0.4,1.4-0.7l1.3-0.6
		l0,0.7c0,0.4,0.1,0.8,0.2,1.1c0.1,0.2,0.5,1.1,0.9,2c1.1,2.3,1.1,2.5,1,4.6c-0.1,1.2-0.1,2.8,0,3.3l0,0.2l0.4,0
		c0.2,0,0.4-0.1,0.4-0.1c0,0,0-0.3,0.1-0.5c0.1-0.9,0.2-1.5,0.6-3c0.1-0.5,0.2-1.2,0-1.7c-0.1-0.5-0.8-2-1.7-3.9
		c-0.4-0.8-0.4-0.8-0.4-1.3c0-0.4,0-0.5,0.2-0.7c0.1-0.1,0.2-0.2,0.3-0.3c0.2-0.1,2.8-0.5,2.8-0.5c0,0,0,0.2-0.1,0.4
		c-0.1,0.2-0.1,0.6-0.1,1c0,0.7,0,0.7,0.4,2.7c0.4,2.2,0.4,2.4-0.2,4.4c-0.4,1.3-0.6,2-0.8,2.8c-0.1,0.7-0.1,0.6,0.3,0.7l0.4,0.1
		l0.2-0.4c0.2-0.7,0.7-1.7,1.2-2.4c0.6-0.9,0.6-1.2,0.7-1.9c0-0.7-0.1-1.7-0.6-4.2c-0.2-1.2-0.2-1.4,0-1.8c0.1-0.3,0.4-0.4,0.6-0.5
		c0.2,0,1.9,0.1,2.7,0.2l0.2,0l-0.1,0.2c-0.3,0.4-0.6,1.1-0.7,1.5c0,0.2-0.1,1.2-0.2,2c-0.2,2.5-0.2,2.7-1.3,4.3
		c-1,1.5-1.9,3-1.8,3.2c0,0,0.2,0.1,0.4,0.2c0.3,0.1,0.3,0.1,0.4,0c0.2-0.4,1.1-1.4,1.8-2.2c1.4-1.4,1.4-1.5,1.7-4.6
		c0.1-0.7,0.1-1.5,0.2-1.9c0-0.7,0.1-1,0.3-1.2c0.4-0.5,0.6-0.5,1.9,0c0.5,0.2,1.1,0.4,1.3,0.5c0.2,0.1,0.3,0.1,0.3,0.1
		s-0.1,0.1-0.3,0.3c-0.3,0.3-0.8,0.9-1,1.3c-0.2,0.4-0.5,1.2-0.9,2.5c-0.5,1.6-0.8,2-2.2,3.2c-0.4,0.4-1,0.9-1.2,1.1
		c-0.5,0.5-1.3,1.4-1.3,1.4c0,0,0.1,0.1,0.3,0.2l0.3,0.2l0.5-0.4c0.6-0.5,1.4-1,2.1-1.4c1.4-0.8,1.6-1,2.5-3.6
		c0.2-0.7,0.5-1.2,0.5-1.3s0.1-0.3,0.2-0.5c0.3-0.9,0.6-1.3,1.1-1.5c0.3-0.1,0.5,0,1.1,0.4c0.3,0.2,0.8,0.6,1.1,0.8
		c0.4,0.3,0.6,0.5,0.6,0.5c0,0-0.1,0.1-0.3,0.2c-0.6,0.3-1.3,0.9-1.8,1.7c-0.1,0.2-0.2,0.3-0.2,0.3c0,0,0,0,0,0.1
		c0,0-0.2,0.4-0.6,0.9c-1.2,1.8-1.3,1.9-3.5,3c-0.7,0.3-1.6,0.8-2,1.1c-0.4,0.3-0.7,0.5-0.7,0.5s0.1,0.2,0.2,0.3s0.2,0.3,0.2,0.3
		c0,0,0.2-0.1,0.5-0.2c0.7-0.3,1.5-0.6,2.5-0.9c1.6-0.4,1.7-0.5,4-3.8c0.1-0.2,0.4-0.5,0.6-0.8c0.5-0.7,0.9-1,1.3-1
		c0.4,0,0.5,0.1,1,0.7c0.9,1.1,1.3,1.6,1.3,1.7c0,0-0.1,0.1-0.3,0.1c-0.4,0.1-1,0.3-1.5,0.6c-0.2,0.1-0.9,0.7-1.5,1.3
		c-1.9,1.7-2.2,1.8-3.9,2.1c-1,0.2-1.9,0.4-2.8,0.7c-0.4,0.1-0.8,0.3-0.8,0.3c0,0,0.3,0.7,0.3,0.7c0,0,0.2,0,0.3,0
		c0.6-0.1,1.9-0.2,2.9-0.2c1.1,0,1.5-0.1,2-0.4c0.4-0.2,1.4-1,2.8-2.2c1.5-1.3,1.5-1.3,2.1-1.3c0.4,0,0.6,0.2,0.8,0.5
		c0.1,0.3,1.1,2.4,1.1,2.4c0,0-0.3,0-0.7,0c-0.9,0-1.2,0.1-3,1c-2.3,1.1-2.6,1.2-4.3,1c-1.1-0.1-3.1-0.1-3.6,0l-0.3,0l0.1,0.4
		c0,0.2,0.1,0.4,0.1,0.4c0,0,0.3,0.1,0.7,0.1c0.9,0.1,1.7,0.3,2.4,0.5c0.5,0.2,0.7,0.2,1.3,0.2c0.7,0,0.7,0,1.2-0.2
		c0.5-0.2,1.9-0.8,3.5-1.6c0.8-0.4,0.9-0.4,1.2-0.4c0.4,0,0.8,0.2,0.9,0.5c0.1,0.2,0.5,2.9,0.5,2.9c0,0-0.1,0-0.2-0.1
		c-0.8-0.3-1.7-0.3-3.6,0.1c-2.5,0.5-2.7,0.5-4.6-0.2c-1.2-0.4-2.6-0.8-3.2-0.9l-0.3,0l-0.1,0.4l-0.1,0.4l0.5,0.2
		c0.7,0.3,1.6,0.7,2.3,1.1c1,0.6,1.2,0.7,1.9,0.7c0.7,0,1.1,0,3.8-0.5c1.1-0.2,1.6-0.3,1.8-0.2c0.5,0.1,0.8,0.4,0.9,0.7
		c0,0.2-0.1,1.9-0.2,2.7l0,0.2l-0.2-0.1c-0.4-0.3-1.1-0.6-1.5-0.7c-0.2,0-1.2-0.1-2.1-0.2c-2.5-0.2-2.7-0.2-4.3-1.3
		c-1.5-1-3.1-1.9-3.2-1.8c0,0-0.1,0.2-0.2,0.4c-0.1,0.3-0.1,0.3,0,0.4c0.4,0.2,1.4,1.1,2.2,1.8c1.4,1.4,1.5,1.4,5.4,1.7
		c1.7,0.1,2,0.2,2.3,0.4c0.3,0.2,0.4,0.5,0.4,0.8c0,0.2-0.9,2.7-1,2.8c0,0-0.1-0.1-0.3-0.2c-0.3-0.4-0.9-0.8-1.3-1
		c-0.2-0.1-0.9-0.3-1.5-0.6c-2.2-0.8-2.6-0.9-3.2-1.5c-0.2-0.2-0.6-0.7-1-1.1c-1-1.2-2.5-2.6-2.6-2.5c0,0-0.1,0.2-0.2,0.3l-0.2,0.3
		l0.4,0.5c0.5,0.6,1,1.4,1.4,2.1c0.8,1.4,1.1,1.6,4.3,2.8c2.1,0.8,2.1,0.8,2.4,1c0.3,0.3,0.4,0.6,0.3,0.9c0,0.1-0.3,0.5-0.6,0.9
		c-0.3,0.4-0.6,0.9-0.8,1.1c-0.3,0.4-0.4,0.5-0.4,0.4c0-0.2-0.7-1.1-1-1.4c-0.2-0.2-0.7-0.6-1.2-0.9c-2-1.3-2.4-1.7-2.8-2.2
		c-0.1-0.2-0.5-1-0.9-1.7c-0.4-0.8-0.9-1.7-1.2-2.1c-0.3-0.4-0.5-0.7-0.5-0.7s-0.2,0.1-0.3,0.2s-0.3,0.2-0.3,0.2s0.1,0.2,0.2,0.5
		c0.3,0.7,0.6,1.5,0.9,2.5c0.2,0.9,0.4,1.2,0.7,1.6c0.4,0.5,1.1,1,3.3,2.5c0.6,0.4,1.1,0.8,1.2,0.9c0.2,0.2,0.4,0.6,0.4,0.8
		c0,0.4-0.1,0.5-1.3,1.5c-0.6,0.5-1.1,0.9-1.2,0.9c0,0-0.1-0.1-0.1-0.3c-0.1-0.4-0.3-1-0.6-1.5c-0.1-0.2-0.7-0.9-1.2-1.4
		c-1.7-2-1.9-2.3-2.2-4.1c-0.2-1.2-0.4-1.9-0.7-2.8c-0.1-0.4-0.3-0.8-0.3-0.8c0,0-0.7,0.3-0.7,0.3c0,0,0,0.2,0.1,0.5
		c0.1,0.7,0.2,1.7,0.2,2.7c0,1.1,0.1,1.4,0.4,2c0.2,0.4,1.1,1.5,2.4,3c1,1.2,1,1.2,1.1,1.6c0.1,0.3,0,0.7-0.2,0.9
		c-0.1,0.1-0.7,0.4-1.4,0.7l-1.3,0.6l0-0.7c-0.1-0.9-0.1-1.2-1.1-3.1c-0.9-1.8-0.9-2-1-2.6c-0.1-0.4-0.1-0.7,0-1.9
		c0.1-1.4,0.1-2.8,0-3.3c0-0.2,0-0.2-0.4-0.1c-0.2,0-0.4,0.1-0.4,0.1c0,0-0.1,0.3-0.1,0.5s-0.1,0.7-0.1,1c-0.1,0.5-0.2,0.8-0.5,2
		c-0.1,0.5-0.2,1.2,0,1.7c0.1,0.5,0.5,1.2,1.4,3.2c0.7,1.5,0.8,1.7,0.8,2c0,0.4-0.1,0.7-0.4,0.9c-0.1,0.1-0.5,0.2-1.3,0.3
		C195,85.4,195,85.4,195.1,85.3z M197.2,68.8c0.4-0.1,0.8-0.5,1-0.9c0.1-0.3,0.2-0.4,0.2-0.8c0-0.5-0.1-0.9-0.5-1.2
		c-0.4-0.4-0.7-0.5-1.2-0.5c-0.3,0-0.5,0-0.7,0.1c-0.8,0.3-1.2,1.2-0.9,2.1C195.4,68.5,196.3,69,197.2,68.8z"/>
	<path id="path12" d="M202.9,67.1c0,3.4-2.8,6.2-6.2,6.2s-6.2-2.8-6.2-6.2s2.8-6.2,6.2-6.2S202.9,63.7,202.9,67.1"/>
	<path id="path14" class="st4" d="M202.9,67.1c0,3.4-2.8,6.2-6.2,6.2s-6.2-2.8-6.2-6.2c0-3.4,2.8-6.2,6.2-6.2S202.9,63.7,202.9,67.1
		z"/>
	<path id="path16" d="M269.3,35.8c0-0.1,0.2-0.3,0.3-0.4l0.2-0.2l-0.1-0.3c0-0.2-0.3-1-0.5-1.9c-0.2-0.9-0.5-2.1-0.7-2.7
		s-0.4-1.5-0.5-2c-0.1-0.5-0.3-1.1-0.3-1.3c-0.2-0.9-0.7-2.9-0.7-2.9c0,0,0.8-0.6,1.7-1.3c0.9-0.7,1.7-1.3,1.8-1.3
		c0,0-1.3,0.8-3.1,1.8l-3.1,1.8l-0.5,0.7c-0.3,0.4-0.9,1.4-1.5,2.2l-1,1.5l-1.2,0c-0.7,0-1.3,0-1.3,0l-0.1,0l0.2-1.6
		c0.1-0.9,0.2-1.6,0.2-1.6c0,0-0.4,0.1-0.8,0.2l-0.8,0.2l-0.1-0.1c0,0-0.1-0.3-0.1-0.5l-0.1-0.5l-0.4,0.1c-0.2,0-0.5,0.1-0.6,0
		l-0.2,0l-0.2-0.3l0.1-0.2c0.1-0.2,0.3-0.5,0.6-0.8l0.2-0.2l-0.2-0.9l-0.3-0.3l-0.3-0.3l-0.3,0.1c-0.2,0.1-0.4,0.1-0.5,0.1l-0.2,0
		l-0.2-0.1l-0.2-0.1l0-0.1l0-0.1l0.1-0.2l0.1-0.2l0.2-0.3l0.2-0.3l0,0c0,0-0.2-0.2-0.4-0.4s-0.4-0.3-0.4-0.4c0,0,0.2-0.3,0.6-0.6
		c0.7-0.7,0.8-0.5-0.9-1.3c-0.8-0.3-1.4-0.6-1.4-0.7c0,0,1.3-2.2,1.4-2.2c0,0,1.2-0.1,2.7-0.2l2.6-0.1l0.4-0.3
		c0.2-0.1,1.6-0.9,3.1-1.8c1.5-0.8,2.6-1.5,2.6-1.5c0,0-3.2,1.3-3.8,1.6l-0.3,0.1l-0.3-0.3c-0.2-0.1-0.4-0.4-0.5-0.5
		c-0.1-0.1-0.3-0.3-0.5-0.5s-0.5-0.4-0.7-0.6c-0.2-0.2-0.8-0.8-1.4-1.3c-1.5-1.4-4.7-4.5-4.8-4.6l-0.1-0.1l-0.2,0.1
		c-0.1,0-0.3,0.1-0.4,0.1l-0.2,0l-0.1-0.1l-0.1-0.1l0.1-0.2c0.3-0.5,2.3-1.8,3.9-2.8c3.6-2,4.7-1.8,1.7,0.3
		c-0.5,0.3-0.9,0.6-0.9,0.7l-0.1,0.1l0.1-0.1c0.1,0,0.5-0.2,0.9-0.4l0.8-0.3l0.4,0.1c0.2,0.1,1,0.3,1.7,0.5c0.7,0.2,3,0.9,5,1.5
		c2.1,0.6,4,1.2,4.2,1.2l0.4,0.1l0,0.1c0,0-0.9,0.7-1.9,1.4s-1.9,1.4-1.9,1.4c-0.1,0.1,0.5-0.2,1-0.5c0.1-0.1,0.7-0.4,1.3-0.6
		c0.9-0.5,1.9-0.9,3.2-1.6c0.2-0.1,0.4-0.2,0.4-0.2c0,0,0.6-0.1,1.2-0.2c0.6-0.1,1.4-0.2,1.7-0.2l0.5-0.1l1.6-0.6
		c0.9-0.4,1.8-0.7,2.1-0.8l0.5-0.2l0.3,0.2c0.4,0.2,0.4,0.2-0.5,0.9c-0.5,0.4-1.3,1-1.8,1.4c-0.5,0.4-0.9,0.7-0.9,0.7
		c0,0,1.1-0.6,2.4-1.3c3.3-1.8,3.1-1.7,4.3-2.2c2.9-1.1,6.1-2.2,7.8-2.3l0.6,0c0.2,0,0.4,0,0.6,0.1c-0.1,0.2-0.1,0.4-0.3,0.6
		l-0.4,0.6l-0.7,0.8c-1.6,1.8-5,4.8-6.4,5.7c-0.3,0.2-1.5,0.9-2.7,1.6c-1.2,0.7-2.2,1.4-2.2,1.4c0,0,0.8-0.3,3.3-1.3
		c0.5-0.2,0.9-0.4,1-0.4c0,0,0.1,0.2,0.1,0.4l0,0.4l-0.8,0.7c-0.5,0.4-1.3,1-1.8,1.4l-0.9,0.7l-1,1.2c-1.2,1.5-1.2,1.5-1.7,1.8
		c-0.3,0.2-0.6,0.4-1.1,0.8c-0.1,0.1-0.2,0.2-0.3,0.2s-0.9,0.6-1.7,1.2c-0.9,0.6-1.6,1.1-1.6,1.1c0,0-0.1,0.1-0.1,0.1l-0.1,0.1
		l0.3-0.1c0.3-0.1,3.8-1.7,4-1.8c0.2-0.1,0.3-0.7-1.9,8.7c-0.4,1.6-0.7,3-0.8,3.1l0,0.2l-0.7,0.5c-0.4,0.3-0.7,0.5-0.8,0.6l-0.1,0.1
		l0.1-0.1c0.1,0,0.4-0.2,0.8-0.4c1.3-0.6,2-0.8,2.3-0.8l0.1,0l0,0.1l0,0.1l-0.3,0.3c-1.3,1.3-6.2,3.9-7,3.8l-0.1,0L269.3,35.8z"/>
	<path id="path18" class="st0" d="M197.2,68.8c0.4-0.1,0.8-0.5,1-0.9c0.1-0.3,0.2-0.4,0.2-0.8c0-0.5-0.1-0.9-0.5-1.2
		s-0.7-0.5-1.2-0.5c-0.3,0-0.5,0-0.7,0.1c-0.8,0.3-1.2,1.2-0.9,2.1C195.4,68.5,196.3,69,197.2,68.8"/>
	<path id="path20" class="st5" d="M197.2,68.8c0.4-0.1,0.8-0.5,1-0.9c0.1-0.3,0.2-0.4,0.2-0.8c0-0.5-0.1-0.9-0.5-1.2
		s-0.7-0.5-1.2-0.5c-0.3,0-0.5,0-0.7,0.1c-0.8,0.3-1.2,1.2-0.9,2.1C195.4,68.5,196.3,69,197.2,68.8z"/>
	<path id="path22" d="M195.2,87.2c-5-0.4-9.3-2.4-12.8-5.8c-3.4-3.4-5.4-7.7-5.8-12.6c-0.1-0.9,0-3.3,0.1-4.1
		c0.6-4.6,2.6-8.5,5.7-11.7c3-3,6.9-5,11.1-5.7c2.3-0.3,4.7-0.3,7,0.2c3.9,0.8,7.5,2.7,10.3,5.5c2.8,2.8,4.7,6.4,5.5,10.3
		c0.3,1.4,0.3,2.2,0.4,3.9c0,1.8-0.1,2.5-0.4,3.9c-1,5.2-4.2,9.9-8.6,12.8c-2.6,1.7-5.3,2.7-8.6,3.2
		C198.5,87.2,195.9,87.2,195.2,87.2 M198.7,86c3.1-0.3,6.2-1.5,8.7-3.2c1.1-0.7,1.8-1.3,2.7-2.3c1.9-1.9,3.3-4,4.3-6.5
		c1.3-3.3,1.8-7.1,0.9-10.5c-1.1-4.6-3.7-9-7.7-11.9c-2.4-1.7-5.4-2.9-8.4-3.3c-1.1-0.1-1.1-0.1-2.5-0.1c-2.9,0-5.5,0.6-8.2,1.8
		c-2.8,1.3-5.5,3.6-7.3,6.1c-0.5,0.7-0.6,0.8-0.9,1.4c-1.3,2.3-2.2,4.8-2.5,7.5c-0.1,1-0.1,2.9,0,3.9c0.2,1.7,0.6,3.5,1.2,5.1
		c2.3,6,7.6,10.4,13.9,11.7c0.3,0.1,0.7,0.1,0.7,0.1c0,0,0.2,0,0.4,0.1c0.2,0,0.4,0.1,0.4,0.1c0.1,0,0.5,0,1,0.1c0.5,0,1,0,1,0
		C196.5,86.1,198,86,198.7,86"/>
	<path id="path24" class="st2" d="M225.7,27.5c-17.1,5.7-31.8,13.5-61.9,35.2c-21.3,15.4-26,18.7-34.6,24.4
		C69.8,126.6,6.1,143.9,5.1,120.8c-0.6-13.2,28.1-36.1,35-27.9c2.4,2.8,4.1,1.5,2.3-1.8c-6.8-12.5-43.9,17.7-40.2,32.7
		c5.5,22.2,68.7,4.7,128.4-35.6c7-4.7,15.1-10.5,39.5-28.2c28.7-20.8,49.5-31.3,66.8-33.7c7.9-1.1,11.9-0.6,15.1-1.2
		c3-0.7,3.2-1,0.8-0.3C248.9,25.5,239.1,24.4,225.7,27.5 M109.1,109C125,99,139,89,155.9,75.3c20.3-15.1,28.7-21.6,2.5-3.4
		c-24.3,19.8-34.2,26.6-57.6,39.9c-29.1,16.4-53.8,26.9-72.1,30.6c-7.4,1.5-10.1,3-5.2,2.9C36.9,145.2,80.6,126.6,109.1,109
		 M95.3,100.8c4.5-3.1,4.5-3.4,0-0.6c-16.7,10.5-50,22.3-61.1,21.6c-13-0.8-16.3-8.6-6.5-15.1c3.2-2.1,3.7-4.1,0.7-2.7
		c-13.7,6.1-11.3,17.8,3.9,19.3C44.4,124.4,79.1,112.1,95.3,100.8"/>
	<path id="path26" d="M168.8,83.5l-2.1-2.3l0-4c0-2.2-0.1-9.5-0.1-16.1l0-12.1l0.2,0c0.1,0,0.4,0.1,0.6,0.2c0.2,0.1,0.7,0.2,0.9,0.4
		c0.3,0.1,0.7,0.4,0.9,0.5c0.2,0.2,0.7,0.5,0.9,0.8c0.3,0.3,0.6,0.8,0.8,1c0.2,0.3,0.4,0.7,0.5,1l0.2,0.5l0,16.3l0,16.3h-0.8
		L168.8,83.5L168.8,83.5z M148.7,85.5c-0.2,0-0.6-0.1-0.8-0.2c-0.2-0.1-0.6-0.2-0.9-0.4c-0.3-0.1-0.7-0.4-0.9-0.6
		c-0.3-0.2-0.6-0.5-0.8-0.7c-0.2-0.2-0.4-0.5-0.6-0.7c-0.1-0.2-0.4-0.6-0.5-0.9c-0.1-0.3-0.3-0.8-0.4-1l-0.1-0.4l0-16l0-16l0.4,0
		l0.4,0l9.5,10.7c5.2,5.9,9.6,10.7,9.6,10.8c0.1,0.1,0.1,0.7,0.1,3.9l0,3.8l-7.2-8c-4-4.4-7.2-8-7.2-7.9s0,0.7,0,1.5
		c0,0.9,0.1,5.4,0.1,11.9v10.3l-0.1,0C149.1,85.6,148.9,85.6,148.7,85.5"/>
	<path id="path28" d="M133.1,83.8c-0.5-1.1-1.2-2.7-1.6-3.6l-0.7-1.6h-17.1l-1.5,3.4c-0.8,1.9-1.5,3.4-1.5,3.5c0,0-0.8-1.3-1.7-2.9
		c-0.9-1.6-1.7-3-1.7-3.1c0,0,3.3-7,7.4-15.5l7.4-15.4l0.3,0l0.3,0l7.4,15.5c4.1,8.5,7.4,15.5,7.4,15.5c0,0-0.8,1.4-1.8,3.1
		c-1,1.7-1.8,3.1-1.8,3.1C134,85.8,133.6,84.9,133.1,83.8L133.1,83.8z M128.5,73.4c0,0-0.9-1.9-1.9-4.3c-1-2.3-2.4-5.5-3.1-7
		s-1.2-2.7-1.2-2.8c0,0,0,0-0.1,0c0,0-0.5,1.2-1.1,2.5c-0.6,1.4-2,4.5-3.1,6.9c-1.1,2.4-2,4.4-2,4.5c0,0.1,0.3,0.1,6.2,0.1
		C125.7,73.4,128.5,73.4,128.5,73.4"/>
	<path id="path30" d="M94.4,70.6c2.3-1,4-2.4,5.2-4.2c1.2-1.8,1.8-3.9,1.8-6.4c0-4-1.4-6.9-4.2-8.6c-2.8-1.8-6.3-2.7-10.5-2.7H86
		v4.7h1.2c5.9,0,8.8,2.2,8.8,6.6c0,2-0.6,3.7-1.8,5.1c-1.2,1.4-3.5,2.1-6.8,2.1H86v4.6c1,0,2.1,0,3.3-0.1l7.5,14h6.5L94.4,70.6z"/>
	<path id="path32" d="M81.8,48.7c-1.8,0.4-3.3,1.9-3.6,3.7v33.5h0.1v-0.1c2.6,0,4.7-2.1,4.7-4.7h0.1V48.7H81.8z"/>
	<path id="path34" d="M225.4,67.1c0.6,0.4,1.6,1,3.1,1.7l3-4.8c-0.9-0.5-1.6-1-2.2-1.4c-0.9-0.6-1.7-1.3-2.3-2.2
		c-0.6-0.8-0.9-1.8-0.9-2.8c0-1.5,0.5-2.6,1.4-3.4c1-0.8,2.3-1.1,4-1.1c1.3,0,2.5,0.2,3.7,0.7c2.1,0.1,4.2-1,5.3-2.9
		c-2.4-1.9-5.3-2.9-8.7-2.9c-3.2,0-5.9,0.9-8,2.5c-2.1,1.7-3.2,4.2-3.2,7.4C220.5,61.9,222.1,65,225.4,67.1"/>
	<path id="path36" d="M241.1,71.8c-0.6-1.2-1.4-2.3-2.4-3.1c-0.7-0.7-1.5-1.3-2.3-1.7c-0.6-0.4-1.4-0.8-2.4-1.4l-2.9,4.7
		c0.7,0.4,1.4,0.8,1.9,1.1c0.9,0.6,1.6,1.2,2.2,2.1c0.6,0.8,0.9,1.8,0.9,3c0,1.5-0.6,2.6-1.7,3.5s-2.6,1.3-4.4,1.3
		c-1.4,0-2.8-0.3-4.3-1c-0.1-0.1-0.3-0.1-0.4-0.2c-2.2-0.2-4.4,1-5.6,3c0.9,0.9,2.3,1.7,4.3,2.4c2,0.7,4,1.1,6,1.1
		c2.3,0,4.3-0.4,6.1-1.2c1.8-0.8,3.2-2,4.2-3.6c1-1.6,1.5-3.5,1.5-5.8C242.1,74.3,241.7,73,241.1,71.8"/>
</g>
</svg>
